<svg width="200" height="191" viewBox="0 0 200 191" fill="none" xmlns="http://www.w3.org/2000/svg">
<path d="M6.336 30.704C5.48267 30.704 4.8 30.448 4.288 29.936C3.776 29.424 3.52 28.7627 3.52 27.952C3.52 27.1413 3.776 26.5013 4.288 26.032C4.8 25.52 5.48267 25.264 6.336 25.264C7.232 25.264 7.91467 25.4987 8.384 25.968C8.85333 26.4373 9.088 27.0987 9.088 27.952C9.088 28.8053 8.85333 29.488 8.384 30C7.91467 30.4693 7.232 30.704 6.336 30.704ZM22.6485 30.704C21.7952 30.704 21.1125 30.448 20.6005 29.936C20.0885 29.424 19.8325 28.7627 19.8325 27.952C19.8325 27.1413 20.0885 26.5013 20.6005 26.032C21.1125 25.52 21.7952 25.264 22.6485 25.264C23.5445 25.264 24.2272 25.4987 24.6965 25.968C25.1658 26.4373 25.4005 27.0987 25.4005 27.952C25.4005 28.8053 25.1658 29.488 24.6965 30C24.2272 30.4693 23.5445 30.704 22.6485 30.704ZM38.961 30.704C38.1077 30.704 37.425 30.448 36.913 29.936C36.401 29.424 36.145 28.7627 36.145 27.952C36.145 27.1413 36.401 26.5013 36.913 26.032C37.425 25.52 38.1077 25.264 38.961 25.264C39.857 25.264 40.5397 25.4987 41.009 25.968C41.4783 26.4373 41.713 27.0987 41.713 27.952C41.713 28.8053 41.4783 29.488 41.009 30C40.5397 30.4693 39.857 30.704 38.961 30.704ZM55.2735 30.704C54.4202 30.704 53.7375 30.448 53.2255 29.936C52.7135 29.424 52.4575 28.7627 52.4575 27.952C52.4575 27.1413 52.7135 26.5013 53.2255 26.032C53.7375 25.52 54.4202 25.264 55.2735 25.264C56.1695 25.264 56.8522 25.4987 57.3215 25.968C57.7908 26.4373 58.0255 27.0987 58.0255 27.952C58.0255 28.8053 57.7908 29.488 57.3215 30C56.8522 30.4693 56.1695 30.704 55.2735 30.704ZM71.586 30.704C70.7327 30.704 70.05 30.448 69.538 29.936C69.026 29.424 68.77 28.7627 68.77 27.952C68.77 27.1413 69.026 26.5013 69.538 26.032C70.05 25.52 70.7327 25.264 71.586 25.264C72.482 25.264 73.1647 25.4987 73.634 25.968C74.1033 26.4373 74.338 27.0987 74.338 27.952C74.338 28.8053 74.1033 29.488 73.634 30C73.1647 30.4693 72.482 30.704 71.586 30.704ZM87.8985 30.704C87.0452 30.704 86.3625 30.448 85.8505 29.936C85.3385 29.424 85.0825 28.7627 85.0825 27.952C85.0825 27.1413 85.3385 26.5013 85.8505 26.032C86.3625 25.52 87.0452 25.264 87.8985 25.264C88.7945 25.264 89.4772 25.4987 89.9465 25.968C90.4158 26.4373 90.6505 27.0987 90.6505 27.952C90.6505 28.8053 90.4158 29.488 89.9465 30C89.4772 30.4693 88.7945 30.704 87.8985 30.704ZM104.211 30.704C103.358 30.704 102.675 30.448 102.163 29.936C101.651 29.424 101.395 28.7627 101.395 27.952C101.395 27.1413 101.651 26.5013 102.163 26.032C102.675 25.52 103.358 25.264 104.211 25.264C105.107 25.264 105.79 25.4987 106.259 25.968C106.728 26.4373 106.963 27.0987 106.963 27.952C106.963 28.8053 106.728 29.488 106.259 30C105.79 30.4693 105.107 30.704 104.211 30.704ZM120.524 30.704C119.67 30.704 118.988 30.448 118.476 29.936C117.964 29.424 117.708 28.7627 117.708 27.952C117.708 27.1413 117.964 26.5013 118.476 26.032C118.988 25.52 119.67 25.264 120.524 25.264C121.42 25.264 122.102 25.4987 122.572 25.968C123.041 26.4373 123.276 27.0987 123.276 27.952C123.276 28.8053 123.041 29.488 122.572 30C122.102 30.4693 121.42 30.704 120.524 30.704ZM136.836 30.704C135.983 30.704 135.3 30.448 134.788 29.936C134.276 29.424 134.02 28.7627 134.02 27.952C134.02 27.1413 134.276 26.5013 134.788 26.032C135.3 25.52 135.983 25.264 136.836 25.264C137.732 25.264 138.415 25.4987 138.884 25.968C139.353 26.4373 139.588 27.0987 139.588 27.952C139.588 28.8053 139.353 29.488 138.884 30C138.415 30.4693 137.732 30.704 136.836 30.704ZM153.149 30.704C152.295 30.704 151.613 30.448 151.101 29.936C150.589 29.424 150.333 28.7627 150.333 27.952C150.333 27.1413 150.589 26.5013 151.101 26.032C151.613 25.52 152.295 25.264 153.149 25.264C154.045 25.264 154.727 25.4987 155.197 25.968C155.666 26.4373 155.901 27.0987 155.901 27.952C155.901 28.8053 155.666 29.488 155.197 30C154.727 30.4693 154.045 30.704 153.149 30.704ZM169.461 30.704C168.608 30.704 167.925 30.448 167.413 29.936C166.901 29.424 166.645 28.7627 166.645 27.952C166.645 27.1413 166.901 26.5013 167.413 26.032C167.925 25.52 168.608 25.264 169.461 25.264C170.357 25.264 171.04 25.4987 171.509 25.968C171.978 26.4373 172.213 27.0987 172.213 27.952C172.213 28.8053 171.978 29.488 171.509 30C171.04 30.4693 170.357 30.704 169.461 30.704ZM185.774 30.704C184.92 30.704 184.238 30.448 183.726 29.936C183.214 29.424 182.958 28.7627 182.958 27.952C182.958 27.1413 183.214 26.5013 183.726 26.032C184.238 25.52 184.92 25.264 185.774 25.264C186.67 25.264 187.352 25.4987 187.822 25.968C188.291 26.4373 188.526 27.0987 188.526 27.952C188.526 28.8053 188.291 29.488 187.822 30C187.352 30.4693 186.67 30.704 185.774 30.704ZM6.336 50.704C5.48267 50.704 4.8 50.448 4.288 49.936C3.776 49.424 3.52 48.7627 3.52 47.952C3.52 47.1413 3.776 46.5013 4.288 46.032C4.8 45.52 5.48267 45.264 6.336 45.264C7.232 45.264 7.91467 45.4987 8.384 45.968C8.85333 46.4373 9.088 47.0987 9.088 47.952C9.088 48.8053 8.85333 49.488 8.384 50C7.91467 50.4693 7.232 50.704 6.336 50.704ZM22.6485 50.704C21.7952 50.704 21.1125 50.448 20.6005 49.936C20.0885 49.424 19.8325 48.7627 19.8325 47.952C19.8325 47.1413 20.0885 46.5013 20.6005 46.032C21.1125 45.52 21.7952 45.264 22.6485 45.264C23.5445 45.264 24.2272 45.4987 24.6965 45.968C25.1658 46.4373 25.4005 47.0987 25.4005 47.952C25.4005 48.8053 25.1658 49.488 24.6965 50C24.2272 50.4693 23.5445 50.704 22.6485 50.704ZM38.961 50.704C38.1077 50.704 37.425 50.448 36.913 49.936C36.401 49.424 36.145 48.7627 36.145 47.952C36.145 47.1413 36.401 46.5013 36.913 46.032C37.425 45.52 38.1077 45.264 38.961 45.264C39.857 45.264 40.5397 45.4987 41.009 45.968C41.4783 46.4373 41.713 47.0987 41.713 47.952C41.713 48.8053 41.4783 49.488 41.009 50C40.5397 50.4693 39.857 50.704 38.961 50.704ZM55.2735 50.704C54.4202 50.704 53.7375 50.448 53.2255 49.936C52.7135 49.424 52.4575 48.7627 52.4575 47.952C52.4575 47.1413 52.7135 46.5013 53.2255 46.032C53.7375 45.52 54.4202 45.264 55.2735 45.264C56.1695 45.264 56.8522 45.4987 57.3215 45.968C57.7908 46.4373 58.0255 47.0987 58.0255 47.952C58.0255 48.8053 57.7908 49.488 57.3215 50C56.8522 50.4693 56.1695 50.704 55.2735 50.704ZM71.586 50.704C70.7327 50.704 70.05 50.448 69.538 49.936C69.026 49.424 68.77 48.7627 68.77 47.952C68.77 47.1413 69.026 46.5013 69.538 46.032C70.05 45.52 70.7327 45.264 71.586 45.264C72.482 45.264 73.1647 45.4987 73.634 45.968C74.1033 46.4373 74.338 47.0987 74.338 47.952C74.338 48.8053 74.1033 49.488 73.634 50C73.1647 50.4693 72.482 50.704 71.586 50.704ZM87.8985 50.704C87.0452 50.704 86.3625 50.448 85.8505 49.936C85.3385 49.424 85.0825 48.7627 85.0825 47.952C85.0825 47.1413 85.3385 46.5013 85.8505 46.032C86.3625 45.52 87.0452 45.264 87.8985 45.264C88.7945 45.264 89.4772 45.4987 89.9465 45.968C90.4158 46.4373 90.6505 47.0987 90.6505 47.952C90.6505 48.8053 90.4158 49.488 89.9465 50C89.4772 50.4693 88.7945 50.704 87.8985 50.704ZM104.211 50.704C103.358 50.704 102.675 50.448 102.163 49.936C101.651 49.424 101.395 48.7627 101.395 47.952C101.395 47.1413 101.651 46.5013 102.163 46.032C102.675 45.52 103.358 45.264 104.211 45.264C105.107 45.264 105.79 45.4987 106.259 45.968C106.728 46.4373 106.963 47.0987 106.963 47.952C106.963 48.8053 106.728 49.488 106.259 50C105.79 50.4693 105.107 50.704 104.211 50.704ZM120.524 50.704C119.67 50.704 118.988 50.448 118.476 49.936C117.964 49.424 117.708 48.7627 117.708 47.952C117.708 47.1413 117.964 46.5013 118.476 46.032C118.988 45.52 119.67 45.264 120.524 45.264C121.42 45.264 122.102 45.4987 122.572 45.968C123.041 46.4373 123.276 47.0987 123.276 47.952C123.276 48.8053 123.041 49.488 122.572 50C122.102 50.4693 121.42 50.704 120.524 50.704ZM136.836 50.704C135.983 50.704 135.3 50.448 134.788 49.936C134.276 49.424 134.02 48.7627 134.02 47.952C134.02 47.1413 134.276 46.5013 134.788 46.032C135.3 45.52 135.983 45.264 136.836 45.264C137.732 45.264 138.415 45.4987 138.884 45.968C139.353 46.4373 139.588 47.0987 139.588 47.952C139.588 48.8053 139.353 49.488 138.884 50C138.415 50.4693 137.732 50.704 136.836 50.704ZM153.149 50.704C152.295 50.704 151.613 50.448 151.101 49.936C150.589 49.424 150.333 48.7627 150.333 47.952C150.333 47.1413 150.589 46.5013 151.101 46.032C151.613 45.52 152.295 45.264 153.149 45.264C154.045 45.264 154.727 45.4987 155.197 45.968C155.666 46.4373 155.901 47.0987 155.901 47.952C155.901 48.8053 155.666 49.488 155.197 50C154.727 50.4693 154.045 50.704 153.149 50.704ZM169.461 50.704C168.608 50.704 167.925 50.448 167.413 49.936C166.901 49.424 166.645 48.7627 166.645 47.952C166.645 47.1413 166.901 46.5013 167.413 46.032C167.925 45.52 168.608 45.264 169.461 45.264C170.357 45.264 171.04 45.4987 171.509 45.968C171.978 46.4373 172.213 47.0987 172.213 47.952C172.213 48.8053 171.978 49.488 171.509 50C171.04 50.4693 170.357 50.704 169.461 50.704ZM185.774 50.704C184.92 50.704 184.238 50.448 183.726 49.936C183.214 49.424 182.958 48.7627 182.958 47.952C182.958 47.1413 183.214 46.5013 183.726 46.032C184.238 45.52 184.92 45.264 185.774 45.264C186.67 45.264 187.352 45.4987 187.822 45.968C188.291 46.4373 188.526 47.0987 188.526 47.952C188.526 48.8053 188.291 49.488 187.822 50C187.352 50.4693 186.67 50.704 185.774 50.704ZM6.336 70.704C5.48267 70.704 4.8 70.448 4.288 69.936C3.776 69.424 3.52 68.7627 3.52 67.952C3.52 67.1413 3.776 66.5013 4.288 66.032C4.8 65.52 5.48267 65.264 6.336 65.264C7.232 65.264 7.91467 65.4987 8.384 65.968C8.85333 66.4373 9.088 67.0987 9.088 67.952C9.088 68.8053 8.85333 69.488 8.384 70C7.91467 70.4693 7.232 70.704 6.336 70.704ZM22.6485 70.704C21.7952 70.704 21.1125 70.448 20.6005 69.936C20.0885 69.424 19.8325 68.7627 19.8325 67.952C19.8325 67.1413 20.0885 66.5013 20.6005 66.032C21.1125 65.52 21.7952 65.264 22.6485 65.264C23.5445 65.264 24.2272 65.4987 24.6965 65.968C25.1658 66.4373 25.4005 67.0987 25.4005 67.952C25.4005 68.8053 25.1658 69.488 24.6965 70C24.2272 70.4693 23.5445 70.704 22.6485 70.704ZM38.961 70.704C38.1077 70.704 37.425 70.448 36.913 69.936C36.401 69.424 36.145 68.7627 36.145 67.952C36.145 67.1413 36.401 66.5013 36.913 66.032C37.425 65.52 38.1077 65.264 38.961 65.264C39.857 65.264 40.5397 65.4987 41.009 65.968C41.4783 66.4373 41.713 67.0987 41.713 67.952C41.713 68.8053 41.4783 69.488 41.009 70C40.5397 70.4693 39.857 70.704 38.961 70.704ZM55.2735 70.704C54.4202 70.704 53.7375 70.448 53.2255 69.936C52.7135 69.424 52.4575 68.7627 52.4575 67.952C52.4575 67.1413 52.7135 66.5013 53.2255 66.032C53.7375 65.52 54.4202 65.264 55.2735 65.264C56.1695 65.264 56.8522 65.4987 57.3215 65.968C57.7908 66.4373 58.0255 67.0987 58.0255 67.952C58.0255 68.8053 57.7908 69.488 57.3215 70C56.8522 70.4693 56.1695 70.704 55.2735 70.704ZM71.586 70.704C70.7327 70.704 70.05 70.448 69.538 69.936C69.026 69.424 68.77 68.7627 68.77 67.952C68.77 67.1413 69.026 66.5013 69.538 66.032C70.05 65.52 70.7327 65.264 71.586 65.264C72.482 65.264 73.1647 65.4987 73.634 65.968C74.1033 66.4373 74.338 67.0987 74.338 67.952C74.338 68.8053 74.1033 69.488 73.634 70C73.1647 70.4693 72.482 70.704 71.586 70.704ZM87.8985 70.704C87.0452 70.704 86.3625 70.448 85.8505 69.936C85.3385 69.424 85.0825 68.7627 85.0825 67.952C85.0825 67.1413 85.3385 66.5013 85.8505 66.032C86.3625 65.52 87.0452 65.264 87.8985 65.264C88.7945 65.264 89.4772 65.4987 89.9465 65.968C90.4158 66.4373 90.6505 67.0987 90.6505 67.952C90.6505 68.8053 90.4158 69.488 89.9465 70C89.4772 70.4693 88.7945 70.704 87.8985 70.704ZM104.211 70.704C103.358 70.704 102.675 70.448 102.163 69.936C101.651 69.424 101.395 68.7627 101.395 67.952C101.395 67.1413 101.651 66.5013 102.163 66.032C102.675 65.52 103.358 65.264 104.211 65.264C105.107 65.264 105.79 65.4987 106.259 65.968C106.728 66.4373 106.963 67.0987 106.963 67.952C106.963 68.8053 106.728 69.488 106.259 70C105.79 70.4693 105.107 70.704 104.211 70.704ZM120.524 70.704C119.67 70.704 118.988 70.448 118.476 69.936C117.964 69.424 117.708 68.7627 117.708 67.952C117.708 67.1413 117.964 66.5013 118.476 66.032C118.988 65.52 119.67 65.264 120.524 65.264C121.42 65.264 122.102 65.4987 122.572 65.968C123.041 66.4373 123.276 67.0987 123.276 67.952C123.276 68.8053 123.041 69.488 122.572 70C122.102 70.4693 121.42 70.704 120.524 70.704ZM136.836 70.704C135.983 70.704 135.3 70.448 134.788 69.936C134.276 69.424 134.02 68.7627 134.02 67.952C134.02 67.1413 134.276 66.5013 134.788 66.032C135.3 65.52 135.983 65.264 136.836 65.264C137.732 65.264 138.415 65.4987 138.884 65.968C139.353 66.4373 139.588 67.0987 139.588 67.952C139.588 68.8053 139.353 69.488 138.884 70C138.415 70.4693 137.732 70.704 136.836 70.704ZM153.149 70.704C152.295 70.704 151.613 70.448 151.101 69.936C150.589 69.424 150.333 68.7627 150.333 67.952C150.333 67.1413 150.589 66.5013 151.101 66.032C151.613 65.52 152.295 65.264 153.149 65.264C154.045 65.264 154.727 65.4987 155.197 65.968C155.666 66.4373 155.901 67.0987 155.901 67.952C155.901 68.8053 155.666 69.488 155.197 70C154.727 70.4693 154.045 70.704 153.149 70.704ZM169.461 70.704C168.608 70.704 167.925 70.448 167.413 69.936C166.901 69.424 166.645 68.7627 166.645 67.952C166.645 67.1413 166.901 66.5013 167.413 66.032C167.925 65.52 168.608 65.264 169.461 65.264C170.357 65.264 171.04 65.4987 171.509 65.968C171.978 66.4373 172.213 67.0987 172.213 67.952C172.213 68.8053 171.978 69.488 171.509 70C171.04 70.4693 170.357 70.704 169.461 70.704ZM185.774 70.704C184.92 70.704 184.238 70.448 183.726 69.936C183.214 69.424 182.958 68.7627 182.958 67.952C182.958 67.1413 183.214 66.5013 183.726 66.032C184.238 65.52 184.92 65.264 185.774 65.264C186.67 65.264 187.352 65.4987 187.822 65.968C188.291 66.4373 188.526 67.0987 188.526 67.952C188.526 68.8053 188.291 69.488 187.822 70C187.352 70.4693 186.67 70.704 185.774 70.704ZM6.336 90.704C5.48267 90.704 4.8 90.448 4.288 89.936C3.776 89.424 3.52 88.7627 3.52 87.952C3.52 87.1413 3.776 86.5013 4.288 86.032C4.8 85.52 5.48267 85.264 6.336 85.264C7.232 85.264 7.91467 85.4987 8.384 85.968C8.85333 86.4373 9.088 87.0987 9.088 87.952C9.088 88.8053 8.85333 89.488 8.384 90C7.91467 90.4693 7.232 90.704 6.336 90.704ZM22.6485 90.704C21.7952 90.704 21.1125 90.448 20.6005 89.936C20.0885 89.424 19.8325 88.7627 19.8325 87.952C19.8325 87.1413 20.0885 86.5013 20.6005 86.032C21.1125 85.52 21.7952 85.264 22.6485 85.264C23.5445 85.264 24.2272 85.4987 24.6965 85.968C25.1658 86.4373 25.4005 87.0987 25.4005 87.952C25.4005 88.8053 25.1658 89.488 24.6965 90C24.2272 90.4693 23.5445 90.704 22.6485 90.704ZM38.961 90.704C38.1077 90.704 37.425 90.448 36.913 89.936C36.401 89.424 36.145 88.7627 36.145 87.952C36.145 87.1413 36.401 86.5013 36.913 86.032C37.425 85.52 38.1077 85.264 38.961 85.264C39.857 85.264 40.5397 85.4987 41.009 85.968C41.4783 86.4373 41.713 87.0987 41.713 87.952C41.713 88.8053 41.4783 89.488 41.009 90C40.5397 90.4693 39.857 90.704 38.961 90.704ZM55.2735 90.704C54.4202 90.704 53.7375 90.448 53.2255 89.936C52.7135 89.424 52.4575 88.7627 52.4575 87.952C52.4575 87.1413 52.7135 86.5013 53.2255 86.032C53.7375 85.52 54.4202 85.264 55.2735 85.264C56.1695 85.264 56.8522 85.4987 57.3215 85.968C57.7908 86.4373 58.0255 87.0987 58.0255 87.952C58.0255 88.8053 57.7908 89.488 57.3215 90C56.8522 90.4693 56.1695 90.704 55.2735 90.704ZM71.586 90.704C70.7327 90.704 70.05 90.448 69.538 89.936C69.026 89.424 68.77 88.7627 68.77 87.952C68.77 87.1413 69.026 86.5013 69.538 86.032C70.05 85.52 70.7327 85.264 71.586 85.264C72.482 85.264 73.1647 85.4987 73.634 85.968C74.1033 86.4373 74.338 87.0987 74.338 87.952C74.338 88.8053 74.1033 89.488 73.634 90C73.1647 90.4693 72.482 90.704 71.586 90.704ZM87.8985 90.704C87.0452 90.704 86.3625 90.448 85.8505 89.936C85.3385 89.424 85.0825 88.7627 85.0825 87.952C85.0825 87.1413 85.3385 86.5013 85.8505 86.032C86.3625 85.52 87.0452 85.264 87.8985 85.264C88.7945 85.264 89.4772 85.4987 89.9465 85.968C90.4158 86.4373 90.6505 87.0987 90.6505 87.952C90.6505 88.8053 90.4158 89.488 89.9465 90C89.4772 90.4693 88.7945 90.704 87.8985 90.704ZM104.211 90.704C103.358 90.704 102.675 90.448 102.163 89.936C101.651 89.424 101.395 88.7627 101.395 87.952C101.395 87.1413 101.651 86.5013 102.163 86.032C102.675 85.52 103.358 85.264 104.211 85.264C105.107 85.264 105.79 85.4987 106.259 85.968C106.728 86.4373 106.963 87.0987 106.963 87.952C106.963 88.8053 106.728 89.488 106.259 90C105.79 90.4693 105.107 90.704 104.211 90.704ZM120.524 90.704C119.67 90.704 118.988 90.448 118.476 89.936C117.964 89.424 117.708 88.7627 117.708 87.952C117.708 87.1413 117.964 86.5013 118.476 86.032C118.988 85.52 119.67 85.264 120.524 85.264C121.42 85.264 122.102 85.4987 122.572 85.968C123.041 86.4373 123.276 87.0987 123.276 87.952C123.276 88.8053 123.041 89.488 122.572 90C122.102 90.4693 121.42 90.704 120.524 90.704ZM136.836 90.704C135.983 90.704 135.3 90.448 134.788 89.936C134.276 89.424 134.02 88.7627 134.02 87.952C134.02 87.1413 134.276 86.5013 134.788 86.032C135.3 85.52 135.983 85.264 136.836 85.264C137.732 85.264 138.415 85.4987 138.884 85.968C139.353 86.4373 139.588 87.0987 139.588 87.952C139.588 88.8053 139.353 89.488 138.884 90C138.415 90.4693 137.732 90.704 136.836 90.704ZM153.149 90.704C152.295 90.704 151.613 90.448 151.101 89.936C150.589 89.424 150.333 88.7627 150.333 87.952C150.333 87.1413 150.589 86.5013 151.101 86.032C151.613 85.52 152.295 85.264 153.149 85.264C154.045 85.264 154.727 85.4987 155.197 85.968C155.666 86.4373 155.901 87.0987 155.901 87.952C155.901 88.8053 155.666 89.488 155.197 90C154.727 90.4693 154.045 90.704 153.149 90.704ZM169.461 90.704C168.608 90.704 167.925 90.448 167.413 89.936C166.901 89.424 166.645 88.7627 166.645 87.952C166.645 87.1413 166.901 86.5013 167.413 86.032C167.925 85.52 168.608 85.264 169.461 85.264C170.357 85.264 171.04 85.4987 171.509 85.968C171.978 86.4373 172.213 87.0987 172.213 87.952C172.213 88.8053 171.978 89.488 171.509 90C171.04 90.4693 170.357 90.704 169.461 90.704ZM185.774 90.704C184.92 90.704 184.238 90.448 183.726 89.936C183.214 89.424 182.958 88.7627 182.958 87.952C182.958 87.1413 183.214 86.5013 183.726 86.032C184.238 85.52 184.92 85.264 185.774 85.264C186.67 85.264 187.352 85.4987 187.822 85.968C188.291 86.4373 188.526 87.0987 188.526 87.952C188.526 88.8053 188.291 89.488 187.822 90C187.352 90.4693 186.67 90.704 185.774 90.704ZM6.336 110.704C5.48267 110.704 4.8 110.448 4.288 109.936C3.776 109.424 3.52 108.763 3.52 107.952C3.52 107.141 3.776 106.501 4.288 106.032C4.8 105.52 5.48267 105.264 6.336 105.264C7.232 105.264 7.91467 105.499 8.384 105.968C8.85333 106.437 9.088 107.099 9.088 107.952C9.088 108.805 8.85333 109.488 8.384 110C7.91467 110.469 7.232 110.704 6.336 110.704ZM22.6485 110.704C21.7952 110.704 21.1125 110.448 20.6005 109.936C20.0885 109.424 19.8325 108.763 19.8325 107.952C19.8325 107.141 20.0885 106.501 20.6005 106.032C21.1125 105.52 21.7952 105.264 22.6485 105.264C23.5445 105.264 24.2272 105.499 24.6965 105.968C25.1658 106.437 25.4005 107.099 25.4005 107.952C25.4005 108.805 25.1658 109.488 24.6965 110C24.2272 110.469 23.5445 110.704 22.6485 110.704ZM38.961 110.704C38.1077 110.704 37.425 110.448 36.913 109.936C36.401 109.424 36.145 108.763 36.145 107.952C36.145 107.141 36.401 106.501 36.913 106.032C37.425 105.52 38.1077 105.264 38.961 105.264C39.857 105.264 40.5397 105.499 41.009 105.968C41.4783 106.437 41.713 107.099 41.713 107.952C41.713 108.805 41.4783 109.488 41.009 110C40.5397 110.469 39.857 110.704 38.961 110.704ZM55.2735 110.704C54.4202 110.704 53.7375 110.448 53.2255 109.936C52.7135 109.424 52.4575 108.763 52.4575 107.952C52.4575 107.141 52.7135 106.501 53.2255 106.032C53.7375 105.52 54.4202 105.264 55.2735 105.264C56.1695 105.264 56.8522 105.499 57.3215 105.968C57.7908 106.437 58.0255 107.099 58.0255 107.952C58.0255 108.805 57.7908 109.488 57.3215 110C56.8522 110.469 56.1695 110.704 55.2735 110.704ZM71.586 110.704C70.7327 110.704 70.05 110.448 69.538 109.936C69.026 109.424 68.77 108.763 68.77 107.952C68.77 107.141 69.026 106.501 69.538 106.032C70.05 105.52 70.7327 105.264 71.586 105.264C72.482 105.264 73.1647 105.499 73.634 105.968C74.1033 106.437 74.338 107.099 74.338 107.952C74.338 108.805 74.1033 109.488 73.634 110C73.1647 110.469 72.482 110.704 71.586 110.704ZM87.8985 110.704C87.0452 110.704 86.3625 110.448 85.8505 109.936C85.3385 109.424 85.0825 108.763 85.0825 107.952C85.0825 107.141 85.3385 106.501 85.8505 106.032C86.3625 105.52 87.0452 105.264 87.8985 105.264C88.7945 105.264 89.4772 105.499 89.9465 105.968C90.4158 106.437 90.6505 107.099 90.6505 107.952C90.6505 108.805 90.4158 109.488 89.9465 110C89.4772 110.469 88.7945 110.704 87.8985 110.704ZM104.211 110.704C103.358 110.704 102.675 110.448 102.163 109.936C101.651 109.424 101.395 108.763 101.395 107.952C101.395 107.141 101.651 106.501 102.163 106.032C102.675 105.52 103.358 105.264 104.211 105.264C105.107 105.264 105.79 105.499 106.259 105.968C106.728 106.437 106.963 107.099 106.963 107.952C106.963 108.805 106.728 109.488 106.259 110C105.79 110.469 105.107 110.704 104.211 110.704ZM120.524 110.704C119.67 110.704 118.988 110.448 118.476 109.936C117.964 109.424 117.708 108.763 117.708 107.952C117.708 107.141 117.964 106.501 118.476 106.032C118.988 105.52 119.67 105.264 120.524 105.264C121.42 105.264 122.102 105.499 122.572 105.968C123.041 106.437 123.276 107.099 123.276 107.952C123.276 108.805 123.041 109.488 122.572 110C122.102 110.469 121.42 110.704 120.524 110.704ZM136.836 110.704C135.983 110.704 135.3 110.448 134.788 109.936C134.276 109.424 134.02 108.763 134.02 107.952C134.02 107.141 134.276 106.501 134.788 106.032C135.3 105.52 135.983 105.264 136.836 105.264C137.732 105.264 138.415 105.499 138.884 105.968C139.353 106.437 139.588 107.099 139.588 107.952C139.588 108.805 139.353 109.488 138.884 110C138.415 110.469 137.732 110.704 136.836 110.704ZM153.149 110.704C152.295 110.704 151.613 110.448 151.101 109.936C150.589 109.424 150.333 108.763 150.333 107.952C150.333 107.141 150.589 106.501 151.101 106.032C151.613 105.52 152.295 105.264 153.149 105.264C154.045 105.264 154.727 105.499 155.197 105.968C155.666 106.437 155.901 107.099 155.901 107.952C155.901 108.805 155.666 109.488 155.197 110C154.727 110.469 154.045 110.704 153.149 110.704ZM169.461 110.704C168.608 110.704 167.925 110.448 167.413 109.936C166.901 109.424 166.645 108.763 166.645 107.952C166.645 107.141 166.901 106.501 167.413 106.032C167.925 105.52 168.608 105.264 169.461 105.264C170.357 105.264 171.04 105.499 171.509 105.968C171.978 106.437 172.213 107.099 172.213 107.952C172.213 108.805 171.978 109.488 171.509 110C171.04 110.469 170.357 110.704 169.461 110.704ZM185.774 110.704C184.92 110.704 184.238 110.448 183.726 109.936C183.214 109.424 182.958 108.763 182.958 107.952C182.958 107.141 183.214 106.501 183.726 106.032C184.238 105.52 184.92 105.264 185.774 105.264C186.67 105.264 187.352 105.499 187.822 105.968C188.291 106.437 188.526 107.099 188.526 107.952C188.526 108.805 188.291 109.488 187.822 110C187.352 110.469 186.67 110.704 185.774 110.704ZM6.336 130.704C5.48267 130.704 4.8 130.448 4.288 129.936C3.776 129.424 3.52 128.763 3.52 127.952C3.52 127.141 3.776 126.501 4.288 126.032C4.8 125.52 5.48267 125.264 6.336 125.264C7.232 125.264 7.91467 125.499 8.384 125.968C8.85333 126.437 9.088 127.099 9.088 127.952C9.088 128.805 8.85333 129.488 8.384 130C7.91467 130.469 7.232 130.704 6.336 130.704ZM22.6485 130.704C21.7952 130.704 21.1125 130.448 20.6005 129.936C20.0885 129.424 19.8325 128.763 19.8325 127.952C19.8325 127.141 20.0885 126.501 20.6005 126.032C21.1125 125.52 21.7952 125.264 22.6485 125.264C23.5445 125.264 24.2272 125.499 24.6965 125.968C25.1658 126.437 25.4005 127.099 25.4005 127.952C25.4005 128.805 25.1658 129.488 24.6965 130C24.2272 130.469 23.5445 130.704 22.6485 130.704ZM38.961 130.704C38.1077 130.704 37.425 130.448 36.913 129.936C36.401 129.424 36.145 128.763 36.145 127.952C36.145 127.141 36.401 126.501 36.913 126.032C37.425 125.52 38.1077 125.264 38.961 125.264C39.857 125.264 40.5397 125.499 41.009 125.968C41.4783 126.437 41.713 127.099 41.713 127.952C41.713 128.805 41.4783 129.488 41.009 130C40.5397 130.469 39.857 130.704 38.961 130.704ZM55.2735 130.704C54.4202 130.704 53.7375 130.448 53.2255 129.936C52.7135 129.424 52.4575 128.763 52.4575 127.952C52.4575 127.141 52.7135 126.501 53.2255 126.032C53.7375 125.52 54.4202 125.264 55.2735 125.264C56.1695 125.264 56.8522 125.499 57.3215 125.968C57.7908 126.437 58.0255 127.099 58.0255 127.952C58.0255 128.805 57.7908 129.488 57.3215 130C56.8522 130.469 56.1695 130.704 55.2735 130.704ZM71.586 130.704C70.7327 130.704 70.05 130.448 69.538 129.936C69.026 129.424 68.77 128.763 68.77 127.952C68.77 127.141 69.026 126.501 69.538 126.032C70.05 125.52 70.7327 125.264 71.586 125.264C72.482 125.264 73.1647 125.499 73.634 125.968C74.1033 126.437 74.338 127.099 74.338 127.952C74.338 128.805 74.1033 129.488 73.634 130C73.1647 130.469 72.482 130.704 71.586 130.704ZM87.8985 130.704C87.0452 130.704 86.3625 130.448 85.8505 129.936C85.3385 129.424 85.0825 128.763 85.0825 127.952C85.0825 127.141 85.3385 126.501 85.8505 126.032C86.3625 125.52 87.0452 125.264 87.8985 125.264C88.7945 125.264 89.4772 125.499 89.9465 125.968C90.4158 126.437 90.6505 127.099 90.6505 127.952C90.6505 128.805 90.4158 129.488 89.9465 130C89.4772 130.469 88.7945 130.704 87.8985 130.704ZM104.211 130.704C103.358 130.704 102.675 130.448 102.163 129.936C101.651 129.424 101.395 128.763 101.395 127.952C101.395 127.141 101.651 126.501 102.163 126.032C102.675 125.52 103.358 125.264 104.211 125.264C105.107 125.264 105.79 125.499 106.259 125.968C106.728 126.437 106.963 127.099 106.963 127.952C106.963 128.805 106.728 129.488 106.259 130C105.79 130.469 105.107 130.704 104.211 130.704ZM120.524 130.704C119.67 130.704 118.988 130.448 118.476 129.936C117.964 129.424 117.708 128.763 117.708 127.952C117.708 127.141 117.964 126.501 118.476 126.032C118.988 125.52 119.67 125.264 120.524 125.264C121.42 125.264 122.102 125.499 122.572 125.968C123.041 126.437 123.276 127.099 123.276 127.952C123.276 128.805 123.041 129.488 122.572 130C122.102 130.469 121.42 130.704 120.524 130.704ZM136.836 130.704C135.983 130.704 135.3 130.448 134.788 129.936C134.276 129.424 134.02 128.763 134.02 127.952C134.02 127.141 134.276 126.501 134.788 126.032C135.3 125.52 135.983 125.264 136.836 125.264C137.732 125.264 138.415 125.499 138.884 125.968C139.353 126.437 139.588 127.099 139.588 127.952C139.588 128.805 139.353 129.488 138.884 130C138.415 130.469 137.732 130.704 136.836 130.704ZM153.149 130.704C152.295 130.704 151.613 130.448 151.101 129.936C150.589 129.424 150.333 128.763 150.333 127.952C150.333 127.141 150.589 126.501 151.101 126.032C151.613 125.52 152.295 125.264 153.149 125.264C154.045 125.264 154.727 125.499 155.197 125.968C155.666 126.437 155.901 127.099 155.901 127.952C155.901 128.805 155.666 129.488 155.197 130C154.727 130.469 154.045 130.704 153.149 130.704ZM169.461 130.704C168.608 130.704 167.925 130.448 167.413 129.936C166.901 129.424 166.645 128.763 166.645 127.952C166.645 127.141 166.901 126.501 167.413 126.032C167.925 125.52 168.608 125.264 169.461 125.264C170.357 125.264 171.04 125.499 171.509 125.968C171.978 126.437 172.213 127.099 172.213 127.952C172.213 128.805 171.978 129.488 171.509 130C171.04 130.469 170.357 130.704 169.461 130.704ZM185.774 130.704C184.92 130.704 184.238 130.448 183.726 129.936C183.214 129.424 182.958 128.763 182.958 127.952C182.958 127.141 183.214 126.501 183.726 126.032C184.238 125.52 184.92 125.264 185.774 125.264C186.67 125.264 187.352 125.499 187.822 125.968C188.291 126.437 188.526 127.099 188.526 127.952C188.526 128.805 188.291 129.488 187.822 130C187.352 130.469 186.67 130.704 185.774 130.704ZM6.336 150.704C5.48267 150.704 4.8 150.448 4.288 149.936C3.776 149.424 3.52 148.763 3.52 147.952C3.52 147.141 3.776 146.501 4.288 146.032C4.8 145.52 5.48267 145.264 6.336 145.264C7.232 145.264 7.91467 145.499 8.384 145.968C8.85333 146.437 9.088 147.099 9.088 147.952C9.088 148.805 8.85333 149.488 8.384 150C7.91467 150.469 7.232 150.704 6.336 150.704ZM22.6485 150.704C21.7952 150.704 21.1125 150.448 20.6005 149.936C20.0885 149.424 19.8325 148.763 19.8325 147.952C19.8325 147.141 20.0885 146.501 20.6005 146.032C21.1125 145.52 21.7952 145.264 22.6485 145.264C23.5445 145.264 24.2272 145.499 24.6965 145.968C25.1658 146.437 25.4005 147.099 25.4005 147.952C25.4005 148.805 25.1658 149.488 24.6965 150C24.2272 150.469 23.5445 150.704 22.6485 150.704ZM38.961 150.704C38.1077 150.704 37.425 150.448 36.913 149.936C36.401 149.424 36.145 148.763 36.145 147.952C36.145 147.141 36.401 146.501 36.913 146.032C37.425 145.52 38.1077 145.264 38.961 145.264C39.857 145.264 40.5397 145.499 41.009 145.968C41.4783 146.437 41.713 147.099 41.713 147.952C41.713 148.805 41.4783 149.488 41.009 150C40.5397 150.469 39.857 150.704 38.961 150.704ZM55.2735 150.704C54.4202 150.704 53.7375 150.448 53.2255 149.936C52.7135 149.424 52.4575 148.763 52.4575 147.952C52.4575 147.141 52.7135 146.501 53.2255 146.032C53.7375 145.52 54.4202 145.264 55.2735 145.264C56.1695 145.264 56.8522 145.499 57.3215 145.968C57.7908 146.437 58.0255 147.099 58.0255 147.952C58.0255 148.805 57.7908 149.488 57.3215 150C56.8522 150.469 56.1695 150.704 55.2735 150.704ZM71.586 150.704C70.7327 150.704 70.05 150.448 69.538 149.936C69.026 149.424 68.77 148.763 68.77 147.952C68.77 147.141 69.026 146.501 69.538 146.032C70.05 145.52 70.7327 145.264 71.586 145.264C72.482 145.264 73.1647 145.499 73.634 145.968C74.1033 146.437 74.338 147.099 74.338 147.952C74.338 148.805 74.1033 149.488 73.634 150C73.1647 150.469 72.482 150.704 71.586 150.704ZM87.8985 150.704C87.0452 150.704 86.3625 150.448 85.8505 149.936C85.3385 149.424 85.0825 148.763 85.0825 147.952C85.0825 147.141 85.3385 146.501 85.8505 146.032C86.3625 145.52 87.0452 145.264 87.8985 145.264C88.7945 145.264 89.4772 145.499 89.9465 145.968C90.4158 146.437 90.6505 147.099 90.6505 147.952C90.6505 148.805 90.4158 149.488 89.9465 150C89.4772 150.469 88.7945 150.704 87.8985 150.704ZM104.211 150.704C103.358 150.704 102.675 150.448 102.163 149.936C101.651 149.424 101.395 148.763 101.395 147.952C101.395 147.141 101.651 146.501 102.163 146.032C102.675 145.52 103.358 145.264 104.211 145.264C105.107 145.264 105.79 145.499 106.259 145.968C106.728 146.437 106.963 147.099 106.963 147.952C106.963 148.805 106.728 149.488 106.259 150C105.79 150.469 105.107 150.704 104.211 150.704ZM120.524 150.704C119.67 150.704 118.988 150.448 118.476 149.936C117.964 149.424 117.708 148.763 117.708 147.952C117.708 147.141 117.964 146.501 118.476 146.032C118.988 145.52 119.67 145.264 120.524 145.264C121.42 145.264 122.102 145.499 122.572 145.968C123.041 146.437 123.276 147.099 123.276 147.952C123.276 148.805 123.041 149.488 122.572 150C122.102 150.469 121.42 150.704 120.524 150.704ZM136.836 150.704C135.983 150.704 135.3 150.448 134.788 149.936C134.276 149.424 134.02 148.763 134.02 147.952C134.02 147.141 134.276 146.501 134.788 146.032C135.3 145.52 135.983 145.264 136.836 145.264C137.732 145.264 138.415 145.499 138.884 145.968C139.353 146.437 139.588 147.099 139.588 147.952C139.588 148.805 139.353 149.488 138.884 150C138.415 150.469 137.732 150.704 136.836 150.704ZM153.149 150.704C152.295 150.704 151.613 150.448 151.101 149.936C150.589 149.424 150.333 148.763 150.333 147.952C150.333 147.141 150.589 146.501 151.101 146.032C151.613 145.52 152.295 145.264 153.149 145.264C154.045 145.264 154.727 145.499 155.197 145.968C155.666 146.437 155.901 147.099 155.901 147.952C155.901 148.805 155.666 149.488 155.197 150C154.727 150.469 154.045 150.704 153.149 150.704ZM169.461 150.704C168.608 150.704 167.925 150.448 167.413 149.936C166.901 149.424 166.645 148.763 166.645 147.952C166.645 147.141 166.901 146.501 167.413 146.032C167.925 145.52 168.608 145.264 169.461 145.264C170.357 145.264 171.04 145.499 171.509 145.968C171.978 146.437 172.213 147.099 172.213 147.952C172.213 148.805 171.978 149.488 171.509 150C171.04 150.469 170.357 150.704 169.461 150.704ZM185.774 150.704C184.92 150.704 184.238 150.448 183.726 149.936C183.214 149.424 182.958 148.763 182.958 147.952C182.958 147.141 183.214 146.501 183.726 146.032C184.238 145.52 184.92 145.264 185.774 145.264C186.67 145.264 187.352 145.499 187.822 145.968C188.291 146.437 188.526 147.099 188.526 147.952C188.526 148.805 188.291 149.488 187.822 150C187.352 150.469 186.67 150.704 185.774 150.704ZM6.336 170.704C5.48267 170.704 4.8 170.448 4.288 169.936C3.776 169.424 3.52 168.763 3.52 167.952C3.52 167.141 3.776 166.501 4.288 166.032C4.8 165.52 5.48267 165.264 6.336 165.264C7.232 165.264 7.91467 165.499 8.384 165.968C8.85333 166.437 9.088 167.099 9.088 167.952C9.088 168.805 8.85333 169.488 8.384 170C7.91467 170.469 7.232 170.704 6.336 170.704ZM22.6485 170.704C21.7952 170.704 21.1125 170.448 20.6005 169.936C20.0885 169.424 19.8325 168.763 19.8325 167.952C19.8325 167.141 20.0885 166.501 20.6005 166.032C21.1125 165.52 21.7952 165.264 22.6485 165.264C23.5445 165.264 24.2272 165.499 24.6965 165.968C25.1658 166.437 25.4005 167.099 25.4005 167.952C25.4005 168.805 25.1658 169.488 24.6965 170C24.2272 170.469 23.5445 170.704 22.6485 170.704ZM38.961 170.704C38.1077 170.704 37.425 170.448 36.913 169.936C36.401 169.424 36.145 168.763 36.145 167.952C36.145 167.141 36.401 166.501 36.913 166.032C37.425 165.52 38.1077 165.264 38.961 165.264C39.857 165.264 40.5397 165.499 41.009 165.968C41.4783 166.437 41.713 167.099 41.713 167.952C41.713 168.805 41.4783 169.488 41.009 170C40.5397 170.469 39.857 170.704 38.961 170.704ZM55.2735 170.704C54.4202 170.704 53.7375 170.448 53.2255 169.936C52.7135 169.424 52.4575 168.763 52.4575 167.952C52.4575 167.141 52.7135 166.501 53.2255 166.032C53.7375 165.52 54.4202 165.264 55.2735 165.264C56.1695 165.264 56.8522 165.499 57.3215 165.968C57.7908 166.437 58.0255 167.099 58.0255 167.952C58.0255 168.805 57.7908 169.488 57.3215 170C56.8522 170.469 56.1695 170.704 55.2735 170.704ZM71.586 170.704C70.7327 170.704 70.05 170.448 69.538 169.936C69.026 169.424 68.77 168.763 68.77 167.952C68.77 167.141 69.026 166.501 69.538 166.032C70.05 165.52 70.7327 165.264 71.586 165.264C72.482 165.264 73.1647 165.499 73.634 165.968C74.1033 166.437 74.338 167.099 74.338 167.952C74.338 168.805 74.1033 169.488 73.634 170C73.1647 170.469 72.482 170.704 71.586 170.704ZM87.8985 170.704C87.0452 170.704 86.3625 170.448 85.8505 169.936C85.3385 169.424 85.0825 168.763 85.0825 167.952C85.0825 167.141 85.3385 166.501 85.8505 166.032C86.3625 165.52 87.0452 165.264 87.8985 165.264C88.7945 165.264 89.4772 165.499 89.9465 165.968C90.4158 166.437 90.6505 167.099 90.6505 167.952C90.6505 168.805 90.4158 169.488 89.9465 170C89.4772 170.469 88.7945 170.704 87.8985 170.704ZM104.211 170.704C103.358 170.704 102.675 170.448 102.163 169.936C101.651 169.424 101.395 168.763 101.395 167.952C101.395 167.141 101.651 166.501 102.163 166.032C102.675 165.52 103.358 165.264 104.211 165.264C105.107 165.264 105.79 165.499 106.259 165.968C106.728 166.437 106.963 167.099 106.963 167.952C106.963 168.805 106.728 169.488 106.259 170C105.79 170.469 105.107 170.704 104.211 170.704ZM120.524 170.704C119.67 170.704 118.988 170.448 118.476 169.936C117.964 169.424 117.708 168.763 117.708 167.952C117.708 167.141 117.964 166.501 118.476 166.032C118.988 165.52 119.67 165.264 120.524 165.264C121.42 165.264 122.102 165.499 122.572 165.968C123.041 166.437 123.276 167.099 123.276 167.952C123.276 168.805 123.041 169.488 122.572 170C122.102 170.469 121.42 170.704 120.524 170.704ZM136.836 170.704C135.983 170.704 135.3 170.448 134.788 169.936C134.276 169.424 134.02 168.763 134.02 167.952C134.02 167.141 134.276 166.501 134.788 166.032C135.3 165.52 135.983 165.264 136.836 165.264C137.732 165.264 138.415 165.499 138.884 165.968C139.353 166.437 139.588 167.099 139.588 167.952C139.588 168.805 139.353 169.488 138.884 170C138.415 170.469 137.732 170.704 136.836 170.704ZM153.149 170.704C152.295 170.704 151.613 170.448 151.101 169.936C150.589 169.424 150.333 168.763 150.333 167.952C150.333 167.141 150.589 166.501 151.101 166.032C151.613 165.52 152.295 165.264 153.149 165.264C154.045 165.264 154.727 165.499 155.197 165.968C155.666 166.437 155.901 167.099 155.901 167.952C155.901 168.805 155.666 169.488 155.197 170C154.727 170.469 154.045 170.704 153.149 170.704ZM169.461 170.704C168.608 170.704 167.925 170.448 167.413 169.936C166.901 169.424 166.645 168.763 166.645 167.952C166.645 167.141 166.901 166.501 167.413 166.032C167.925 165.52 168.608 165.264 169.461 165.264C170.357 165.264 171.04 165.499 171.509 165.968C171.978 166.437 172.213 167.099 172.213 167.952C172.213 168.805 171.978 169.488 171.509 170C171.04 170.469 170.357 170.704 169.461 170.704ZM185.774 170.704C184.92 170.704 184.238 170.448 183.726 169.936C183.214 169.424 182.958 168.763 182.958 167.952C182.958 167.141 183.214 166.501 183.726 166.032C184.238 165.52 184.92 165.264 185.774 165.264C186.67 165.264 187.352 165.499 187.822 165.968C188.291 166.437 188.526 167.099 188.526 167.952C188.526 168.805 188.291 169.488 187.822 170C187.352 170.469 186.67 170.704 185.774 170.704ZM6.336 190.704C5.48267 190.704 4.8 190.448 4.288 189.936C3.776 189.424 3.52 188.763 3.52 187.952C3.52 187.141 3.776 186.501 4.288 186.032C4.8 185.52 5.48267 185.264 6.336 185.264C7.232 185.264 7.91467 185.499 8.384 185.968C8.85333 186.437 9.088 187.099 9.088 187.952C9.088 188.805 8.85333 189.488 8.384 190C7.91467 190.469 7.232 190.704 6.336 190.704ZM22.6485 190.704C21.7952 190.704 21.1125 190.448 20.6005 189.936C20.0885 189.424 19.8325 188.763 19.8325 187.952C19.8325 187.141 20.0885 186.501 20.6005 186.032C21.1125 185.52 21.7952 185.264 22.6485 185.264C23.5445 185.264 24.2272 185.499 24.6965 185.968C25.1658 186.437 25.4005 187.099 25.4005 187.952C25.4005 188.805 25.1658 189.488 24.6965 190C24.2272 190.469 23.5445 190.704 22.6485 190.704ZM38.961 190.704C38.1077 190.704 37.425 190.448 36.913 189.936C36.401 189.424 36.145 188.763 36.145 187.952C36.145 187.141 36.401 186.501 36.913 186.032C37.425 185.52 38.1077 185.264 38.961 185.264C39.857 185.264 40.5397 185.499 41.009 185.968C41.4783 186.437 41.713 187.099 41.713 187.952C41.713 188.805 41.4783 189.488 41.009 190C40.5397 190.469 39.857 190.704 38.961 190.704ZM55.2735 190.704C54.4202 190.704 53.7375 190.448 53.2255 189.936C52.7135 189.424 52.4575 188.763 52.4575 187.952C52.4575 187.141 52.7135 186.501 53.2255 186.032C53.7375 185.52 54.4202 185.264 55.2735 185.264C56.1695 185.264 56.8522 185.499 57.3215 185.968C57.7908 186.437 58.0255 187.099 58.0255 187.952C58.0255 188.805 57.7908 189.488 57.3215 190C56.8522 190.469 56.1695 190.704 55.2735 190.704ZM71.586 190.704C70.7327 190.704 70.05 190.448 69.538 189.936C69.026 189.424 68.77 188.763 68.77 187.952C68.77 187.141 69.026 186.501 69.538 186.032C70.05 185.52 70.7327 185.264 71.586 185.264C72.482 185.264 73.1647 185.499 73.634 185.968C74.1033 186.437 74.338 187.099 74.338 187.952C74.338 188.805 74.1033 189.488 73.634 190C73.1647 190.469 72.482 190.704 71.586 190.704ZM87.8985 190.704C87.0452 190.704 86.3625 190.448 85.8505 189.936C85.3385 189.424 85.0825 188.763 85.0825 187.952C85.0825 187.141 85.3385 186.501 85.8505 186.032C86.3625 185.52 87.0452 185.264 87.8985 185.264C88.7945 185.264 89.4772 185.499 89.9465 185.968C90.4158 186.437 90.6505 187.099 90.6505 187.952C90.6505 188.805 90.4158 189.488 89.9465 190C89.4772 190.469 88.7945 190.704 87.8985 190.704ZM104.211 190.704C103.358 190.704 102.675 190.448 102.163 189.936C101.651 189.424 101.395 188.763 101.395 187.952C101.395 187.141 101.651 186.501 102.163 186.032C102.675 185.52 103.358 185.264 104.211 185.264C105.107 185.264 105.79 185.499 106.259 185.968C106.728 186.437 106.963 187.099 106.963 187.952C106.963 188.805 106.728 189.488 106.259 190C105.79 190.469 105.107 190.704 104.211 190.704ZM120.524 190.704C119.67 190.704 118.988 190.448 118.476 189.936C117.964 189.424 117.708 188.763 117.708 187.952C117.708 187.141 117.964 186.501 118.476 186.032C118.988 185.52 119.67 185.264 120.524 185.264C121.42 185.264 122.102 185.499 122.572 185.968C123.041 186.437 123.276 187.099 123.276 187.952C123.276 188.805 123.041 189.488 122.572 190C122.102 190.469 121.42 190.704 120.524 190.704ZM136.836 190.704C135.983 190.704 135.3 190.448 134.788 189.936C134.276 189.424 134.02 188.763 134.02 187.952C134.02 187.141 134.276 186.501 134.788 186.032C135.3 185.52 135.983 185.264 136.836 185.264C137.732 185.264 138.415 185.499 138.884 185.968C139.353 186.437 139.588 187.099 139.588 187.952C139.588 188.805 139.353 189.488 138.884 190C138.415 190.469 137.732 190.704 136.836 190.704ZM153.149 190.704C152.295 190.704 151.613 190.448 151.101 189.936C150.589 189.424 150.333 188.763 150.333 187.952C150.333 187.141 150.589 186.501 151.101 186.032C151.613 185.52 152.295 185.264 153.149 185.264C154.045 185.264 154.727 185.499 155.197 185.968C155.666 186.437 155.901 187.099 155.901 187.952C155.901 188.805 155.666 189.488 155.197 190C154.727 190.469 154.045 190.704 153.149 190.704ZM169.461 190.704C168.608 190.704 167.925 190.448 167.413 189.936C166.901 189.424 166.645 188.763 166.645 187.952C166.645 187.141 166.901 186.501 167.413 186.032C167.925 185.52 168.608 185.264 169.461 185.264C170.357 185.264 171.04 185.499 171.509 185.968C171.978 186.437 172.213 187.099 172.213 187.952C172.213 188.805 171.978 189.488 171.509 190C171.04 190.469 170.357 190.704 169.461 190.704ZM185.774 190.704C184.92 190.704 184.238 190.448 183.726 189.936C183.214 189.424 182.958 188.763 182.958 187.952C182.958 187.141 183.214 186.501 183.726 186.032C184.238 185.52 184.92 185.264 185.774 185.264C186.67 185.264 187.352 185.499 187.822 185.968C188.291 186.437 188.526 187.099 188.526 187.952C188.526 188.805 188.291 189.488 187.822 190C187.352 190.469 186.67 190.704 185.774 190.704Z" fill="#267175"/>
</svg>
