<svg width="2186" height="704" viewBox="0 0 2186 704" fill="none" xmlns="http://www.w3.org/2000/svg">
<g clip-path="url(#clip0_440_2329)">
<path d="M1920 121L1856 134.3C1792 148 1664 174 1536 182.3C1408 190 1280 180 1152 166.3C1024 153 896 137 768 139.7C640 142 512 164 384 166.3C256 169 128 153 -5.72205e-05 155.7C-128 158 -256 180 -384 174.3C-512 169 -640 137 -768 129C-896 121 -1024 137 -1152 145C-1280 153 -1408 153 -1536 150.3C-1664 148 -1792 142 -1920 158.3C-2048 174 -2176 212 -2304 219.7C-2432 228 -2560 206 -2688 193C-2816 180 -2944 174 -3072 179.7C-3200 185 -3328 201 -3456 214.3C-3584 228 -3712 238 -3840 235.7C-3968 233 -4096 217 -4224 193C-4352 169 -4480 137 -4608 145C-4736 153 -4864 201 -4992 206.3C-5120 212 -5248 174 -5376 169C-5504 164 -5632 190 -5760 185C-5888 180 -6016 142 -6144 126.3C-6272 110 -6400 116 -6528 115.7C-6656 116 -6784 110 -6912 113C-7040 116 -7168 126 -7232 131.7L-7296 137V89.0001H-7232C-7168 89.0001 -7040 89.0001 -6912 89.0001C-6784 89.0001 -6656 89.0001 -6528 89.0001C-6400 89.0001 -6272 89.0001 -6144 89.0001C-6016 89.0001 -5888 89.0001 -5760 89.0001C-5632 89.0001 -5504 89.0001 -5376 89.0001C-5248 89.0001 -5120 89.0001 -4992 89.0001C-4864 89.0001 -4736 89.0001 -4608 89.0001C-4480 89.0001 -4352 89.0001 -4224 89.0001C-4096 89.0001 -3968 89.0001 -3840 89.0001C-3712 89.0001 -3584 89.0001 -3456 89.0001C-3328 89.0001 -3200 89.0001 -3072 89.0001C-2944 89.0001 -2816 89.0001 -2688 89.0001C-2560 89.0001 -2432 89.0001 -2304 89.0001C-2176 89.0001 -2048 89.0001 -1920 89.0001C-1792 89.0001 -1664 89.0001 -1536 89.0001C-1408 89.0001 -1280 89.0001 -1152 89.0001C-1024 89.0001 -896 89.0001 -768 89.0001C-640 89.0001 -512 89.0001 -384 89.0001C-256 89.0001 -128 89.0001 -5.72205e-05 89.0001C128 89.0001 256 89.0001 384 89.0001C512 89.0001 640 89.0001 768 89.0001C896 89.0001 1024 89.0001 1152 89.0001C1280 89.0001 1408 89.0001 1536 89.0001C1664 89.0001 1792 89.0001 1856 89.0001H1920V121Z" fill="url(#paint0_linear_440_2329)"/>
<path opacity="0.9" d="M1920 121L1856 137C1792 153 1664 185 1536 193C1408 201 1280 185 1152 179.7C1024 174 896 180 768 193C640 206 512 228 384 225C256 222 128 196 -5.72205e-05 179.7C-128 164 -256 158 -384 171.7C-512 185 -640 217 -768 230.3C-896 244 -1024 238 -1152 219.7C-1280 201 -1408 169 -1536 158.3C-1664 148 -1792 158 -1920 177C-2048 196 -2176 222 -2304 225C-2432 228 -2560 206 -2688 190.3C-2816 174 -2944 164 -3072 163.7C-3200 164 -3328 174 -3456 177C-3584 180 -3712 174 -3840 169C-3968 164 -4096 158 -4224 158.3C-4352 158 -4480 164 -4608 166.3C-4736 169 -4864 169 -4992 171.7C-5120 174 -5248 180 -5376 179.7C-5504 180 -5632 174 -5760 171.7C-5888 169 -6016 169 -6144 161C-6272 153 -6400 137 -6528 147.7C-6656 158 -6784 196 -6912 214.3C-7040 233 -7168 233 -7232 233H-7296V88.9999H-7232C-7168 88.9999 -7040 88.9999 -6912 88.9999C-6784 88.9999 -6656 88.9999 -6528 88.9999C-6400 88.9999 -6272 88.9999 -6144 88.9999C-6016 88.9999 -5888 88.9999 -5760 88.9999C-5632 88.9999 -5504 88.9999 -5376 88.9999C-5248 88.9999 -5120 88.9999 -4992 88.9999C-4864 88.9999 -4736 88.9999 -4608 88.9999C-4480 88.9999 -4352 88.9999 -4224 88.9999C-4096 88.9999 -3968 88.9999 -3840 88.9999C-3712 88.9999 -3584 88.9999 -3456 88.9999C-3328 88.9999 -3200 88.9999 -3072 88.9999C-2944 88.9999 -2816 88.9999 -2688 88.9999C-2560 88.9999 -2432 88.9999 -2304 88.9999C-2176 88.9999 -2048 88.9999 -1920 88.9999C-1792 88.9999 -1664 88.9999 -1536 88.9999C-1408 88.9999 -1280 88.9999 -1152 88.9999C-1024 88.9999 -896 88.9999 -768 88.9999C-640 88.9999 -512 88.9999 -384 88.9999C-256 88.9999 -128 88.9999 -5.72205e-05 88.9999C128 88.9999 256 88.9999 384 88.9999C512 88.9999 640 88.9999 768 88.9999C896 88.9999 1024 88.9999 1152 88.9999C1280 88.9999 1408 88.9999 1536 88.9999C1664 88.9999 1792 88.9999 1856 88.9999H1920V121Z" fill="url(#paint1_linear_440_2329)"/>
<path opacity="0.8" d="M1920 201L1856 209C1792 217 1664 233 1536 219.7C1408 206 1280 164 1152 155.7C1024 148 896 174 768 171.7C640 169 512 137 384 139.7C256 142 128 180 -5.72205e-05 198.3C-128 217 -256 217 -384 203.7C-512 190 -640 164 -768 155.7C-896 148 -1024 158 -1152 153C-1280 148 -1408 126 -1536 134.3C-1664 142 -1792 180 -1920 203.7C-2048 228 -2176 238 -2304 238.3C-2432 238 -2560 228 -2688 222.3C-2816 217 -2944 217 -3072 203.7C-3200 190 -3328 164 -3456 161C-3584 158 -3712 180 -3840 190.3C-3968 201 -4096 201 -4224 209C-4352 217 -4480 233 -4608 235.7C-4736 238 -4864 228 -4992 219.7C-5120 212 -5248 206 -5376 201C-5504 196 -5632 190 -5760 177C-5888 164 -6016 142 -6144 150.3C-6272 158 -6400 196 -6528 217C-6656 238 -6784 244 -6912 230.3C-7040 217 -7168 185 -7232 169L-7296 153V89H-7232C-7168 89 -7040 89 -6912 89C-6784 89 -6656 89 -6528 89C-6400 89 -6272 89 -6144 89C-6016 89 -5888 89 -5760 89C-5632 89 -5504 89 -5376 89C-5248 89 -5120 89 -4992 89C-4864 89 -4736 89 -4608 89C-4480 89 -4352 89 -4224 89C-4096 89 -3968 89 -3840 89C-3712 89 -3584 89 -3456 89C-3328 89 -3200 89 -3072 89C-2944 89 -2816 89 -2688 89C-2560 89 -2432 89 -2304 89C-2176 89 -2048 89 -1920 89C-1792 89 -1664 89 -1536 89C-1408 89 -1280 89 -1152 89C-1024 89 -896 89 -768 89C-640 89 -512 89 -384 89C-256 89 -128 89 -5.72205e-05 89C128 89 256 89 384 89C512 89 640 89 768 89C896 89 1024 89 1152 89C1280 89 1408 89 1536 89C1664 89 1792 89 1856 89H1920V201Z" fill="url(#paint2_linear_440_2329)"/>
</g>
<circle cx="1834" cy="352" r="351" stroke="#072D44" stroke-width="2"/>
<circle cx="1834" cy="352" r="301" stroke="#072D44" stroke-width="2"/>
<circle cx="1841" cy="347" r="251" stroke="#072D44" stroke-width="2"/>
<defs>
<linearGradient id="paint0_linear_440_2329" x1="1920" y1="89.0001" x2="1920" y2="236.03" gradientUnits="userSpaceOnUse">
<stop stop-color="#D0D7E1" stop-opacity="0.04"/>
<stop offset="1" stop-color="#D0D7E1"/>
</linearGradient>
<linearGradient id="paint1_linear_440_2329" x1="1920" y1="88.9999" x2="1920" y2="237.792" gradientUnits="userSpaceOnUse">
<stop stop-color="#D0D7E1"/>
<stop offset="1" stop-color="#D0D7E1" stop-opacity="0.61"/>
</linearGradient>
<linearGradient id="paint2_linear_440_2329" x1="1920" y1="89" x2="1920" y2="238.3" gradientUnits="userSpaceOnUse">
<stop stop-color="#D0D7E1"/>
<stop offset="1" stop-color="#D0D7E1"/>
</linearGradient>
<clipPath id="clip0_440_2329">
<rect width="1920" height="160" fill="white" transform="matrix(-1 0 0 -1 1920 249)"/>
</clipPath>
</defs>
</svg>
