<svg xmlns="http://www.w3.org/2000/svg" xmlns:xlink="http://www.w3.org/1999/xlink" width="500" zoomAndPan="magnify" viewBox="0 0 375 374.999991" height="500" preserveAspectRatio="xMidYMid meet" version="1.0"><defs><g/><clipPath id="a8384912e9"><path d="M 110.269531 209 L 262 209 L 262 267 L 110.269531 267 Z M 110.269531 209 " clip-rule="nonzero"/></clipPath><clipPath id="2afd1df005"><path d="M 172.804688 149.414062 L 202.054688 149.414062 L 202.054688 192 L 172.804688 192 Z M 172.804688 149.414062 " clip-rule="nonzero"/></clipPath></defs><g clip-path="url(#a8384912e9)"><path fill="#f8f8f8" d="M 261.011719 213.160156 C 258.28125 211.546875 255.441406 210.40625 252.175781 210.136719 C 246.117188 209.644531 241.238281 212.097656 236.355469 215.28125 C 231.34375 218.546875 226.859375 219.335938 222.332031 214.953125 C 219.722656 212.425781 216.367188 211.085938 212.738281 210.574219 C 211.011719 210.585938 209.289062 210.597656 207.5625 210.605469 C 206.695312 210.898438 205.765625 211.082031 204.96875 211.507812 C 202.644531 212.753906 200.449219 214.261719 198.066406 215.363281 C 193.605469 217.421875 189.257812 218.171875 185.128906 214.242188 C 183.453125 212.644531 181.320312 211.433594 178.980469 210.675781 C 172.316406 208.519531 166.289062 209.890625 160.941406 214.074219 C 156.699219 217.394531 152.5 217.53125 147.988281 214.945312 C 145.628906 213.59375 143.34375 212.074219 140.886719 210.929688 C 135.410156 208.378906 130.25 208.171875 125.117188 212.363281 C 121.917969 214.976562 118.183594 217.25 113.609375 216.972656 C 112.6875 216.917969 111.53125 216.609375 110.953125 217.808594 C 110.371094 219.019531 111.386719 219.777344 111.90625 220.578125 C 115.121094 225.554688 118.480469 230.382812 122.304688 234.972656 C 125.640625 238.980469 129.117188 242.632812 133.277344 245.695312 C 142.195312 252.253906 151.253906 258.601562 161.683594 262.589844 C 168.070312 265.035156 174.730469 266.585938 181.558594 266.726562 C 189.320312 266.886719 196.949219 265.480469 204.488281 263.675781 C 213.917969 261.421875 222.929688 258.269531 231.164062 252.917969 C 239.277344 247.648438 246.082031 241.097656 251.867188 233.449219 C 256.027344 227.949219 260.007812 222.320312 261.8125 215.460938 C 262.136719 214.222656 261.863281 213.664062 261.011719 213.160156 Z M 156.871094 257.3125 C 161.601562 256.152344 165.011719 252.8125 169.753906 252.605469 C 172.578125 252.480469 175.234375 252.851562 177.757812 254.050781 C 179.539062 254.894531 181.328125 255.773438 182.984375 256.835938 C 187.933594 260.011719 192.902344 259.503906 197.929688 257.132812 C 198.9375 256.65625 200.015625 256.257812 200.894531 255.597656 C 206.417969 251.457031 211.945312 252.300781 217.511719 255.449219 C 217.957031 255.699219 218.414062 255.933594 219.453125 256.496094 C 198.460938 263.722656 178.050781 268.214844 156.871094 257.316406 Z M 224.15625 253.984375 C 222.0625 255 220.136719 253.878906 218.324219 252.894531 C 214.195312 250.660156 209.90625 249.539062 205.195312 250.617188 C 203.820312 250.933594 202.621094 251.550781 201.441406 252.261719 C 199.449219 253.457031 197.460938 254.667969 195.261719 255.449219 C 191.734375 256.699219 188.375 256.90625 184.878906 254.890625 C 180.519531 252.375 176.160156 249.683594 170.707031 250.003906 C 168.074219 250.15625 165.578125 250.535156 163.25 251.734375 C 160.417969 253.1875 157.53125 254.464844 154.46875 255.367188 C 153.851562 255.550781 153.453125 255.6875 152.878906 255.335938 C 146.78125 251.636719 140.546875 248.140625 134.777344 242.9375 C 139.007812 243.058594 142.5625 244.191406 145.535156 246.378906 C 150.691406 250.167969 155.691406 249.050781 160.808594 246.617188 C 161.816406 246.140625 162.824219 245.597656 163.6875 244.910156 C 168.464844 241.105469 173.238281 241.917969 178.035156 244.820312 C 178.992188 245.398438 179.914062 246.042969 180.867188 246.625 C 186.828125 250.28125 192.621094 249.964844 198.117188 245.699219 C 202.46875 242.320312 207.058594 240.242188 212.71875 241.847656 C 214.070312 242.230469 215.429688 242.652344 216.433594 243.542969 C 221.496094 248.039062 227.324219 249.089844 234.347656 247.394531 C 230.859375 250.242188 227.617188 252.304688 224.15625 253.984375 Z M 240.5625 242.277344 C 237.371094 244.886719 233.300781 245.203125 229.339844 245.492188 C 225.996094 245.734375 222.890625 245.191406 220.144531 242.925781 C 213.695312 237.605469 205.164062 237.003906 197.367188 242.945312 C 191.007812 247.796875 187.121094 247.75 180.46875 243.3125 C 176.328125 240.550781 171.980469 238.789062 166.890625 240.242188 C 165.292969 240.699219 163.964844 241.660156 162.585938 242.523438 C 161.058594 243.476562 159.574219 244.484375 157.855469 245.109375 C 154.246094 246.421875 150.878906 246.890625 147.363281 244.4375 C 143.042969 241.421875 138.101562 239.933594 132.742188 240.367188 C 131.738281 240.445312 131.15625 239.996094 130.519531 239.363281 C 129.058594 237.898438 127.539062 236.492188 125.8125 234.839844 C 132.082031 231.996094 137.996094 231.257812 143.6875 235.027344 C 150.15625 239.308594 156.621094 239.066406 162.691406 234.8125 C 168.128906 231 173.25 231.695312 178.3125 234.789062 C 183.589844 238.015625 188.996094 239.355469 195.035156 237.714844 C 197.644531 237.007812 199.941406 235.695312 202.148438 234.175781 C 207.539062 230.457031 213.289062 230.324219 218.726562 234.042969 C 222.910156 236.902344 227.035156 239.546875 232.476562 238.832031 C 236.523438 238.296875 240.03125 236.59375 243.332031 234.367188 C 245.023438 233.226562 246.808594 232.53125 249.300781 232.523438 C 246.378906 236.183594 243.832031 239.601562 240.566406 242.277344 Z M 255.34375 223.925781 C 254.128906 225.707031 252.882812 227.464844 251.722656 229.277344 C 251.253906 230.011719 250.683594 230.011719 249.957031 229.953125 C 246.8125 229.695312 244.085938 230.722656 241.472656 232.457031 C 237.617188 235.011719 233.511719 236.898438 228.652344 236.191406 C 225.523438 235.734375 223.167969 233.820312 220.691406 232.144531 C 213.984375 227.617188 207.125 227.636719 200.515625 232.140625 C 194.15625 236.472656 187.597656 237.507812 180.785156 233.082031 C 179.921875 232.519531 178.984375 232.066406 178.046875 231.636719 C 172.488281 229.066406 167.105469 228.460938 161.730469 232.367188 C 158.320312 234.847656 154.433594 236.203125 150.058594 235.152344 C 148.691406 234.820312 147.445312 234.214844 146.320312 233.464844 C 139.796875 229.140625 132.964844 228.808594 125.929688 231.898438 C 124.230469 232.648438 123.3125 232.269531 122.359375 230.851562 C 121.359375 229.363281 120.179688 228 118.824219 226.253906 C 123.84375 225.832031 127.871094 223.800781 131.898438 221.632812 C 134.441406 220.261719 137.140625 221.125 139.59375 222.300781 C 141.140625 223.039062 142.578125 224.015625 144.03125 224.933594 C 150.132812 228.777344 156.28125 229.070312 162.511719 225.253906 C 163.390625 224.714844 164.3125 224.242188 165.167969 223.664062 C 169.894531 220.457031 174.414062 221.203125 178.789062 224.367188 C 181.101562 226.039062 183.480469 227.539062 186.261719 228.324219 C 191.273438 229.730469 195.769531 228.457031 200.027344 225.804688 C 201.269531 225.03125 202.539062 224.308594 203.777344 223.53125 C 208.269531 220.710938 212.796875 220.789062 217.097656 223.75 C 226.667969 230.34375 236.058594 229.742188 245.433594 223.414062 C 248.261719 221.507812 251.328125 221.34375 254.597656 222.058594 C 256.097656 222.386719 256.03125 222.925781 255.34375 223.925781 Z M 257.792969 219.066406 C 257.40625 219.976562 257.0625 220.1875 255.933594 219.804688 C 251.515625 218.296875 247.277344 218.929688 243.414062 221.589844 C 237.09375 225.949219 230.378906 227.0625 223.113281 224.253906 C 221.722656 223.714844 220.539062 222.882812 219.34375 222.054688 C 213.660156 218.132812 207.886719 217.789062 201.972656 221.539062 C 200.375 222.550781 198.742188 223.511719 197.09375 224.449219 C 192.089844 227.289062 187.226562 226.726562 182.492188 223.761719 C 180.816406 222.710938 179.203125 221.558594 177.488281 220.578125 C 173.296875 218.191406 169.089844 218.574219 164.957031 220.761719 C 163.515625 221.523438 162.128906 222.394531 160.730469 223.234375 C 155.722656 226.238281 150.769531 225.976562 145.855469 223.003906 C 144.308594 222.070312 142.804688 221.058594 141.210938 220.21875 C 136.867188 217.929688 132.558594 217.605469 128.289062 220.507812 C 126.132812 221.972656 123.710938 222.804688 121.117188 223.230469 C 116.851562 223.929688 116.757812 223.925781 114.851562 219.636719 C 119.152344 219.441406 122.710938 217.671875 125.847656 215.210938 C 132.164062 210.257812 135.605469 210.570312 143.222656 215.214844 C 145.4375 216.566406 147.707031 217.679688 150.121094 218.621094 C 154.199219 220.21875 157.871094 219.464844 161.414062 217.226562 C 162.140625 216.769531 162.847656 216.273438 163.558594 215.785156 C 170.566406 210.941406 176.851562 210.820312 183.425781 216.261719 C 188.886719 220.78125 194.292969 220.015625 200.019531 217.5 C 201.269531 216.949219 202.429688 216.179688 203.585938 215.4375 C 208.597656 212.210938 214.09375 212.285156 219.027344 215.695312 C 219.523438 216.039062 220.089844 216.332031 220.480469 216.769531 C 225.628906 222.546875 233.878906 220.671875 238.648438 217.261719 C 242.773438 214.3125 247.023438 212.207031 252.265625 212.757812 C 253.386719 212.875 254.511719 212.917969 255.542969 213.355469 C 259.847656 215.183594 259.785156 214.390625 257.792969 219.066406 Z M 257.792969 219.066406 " fill-opacity="1" fill-rule="nonzero"/></g><g clip-path="url(#2afd1df005)"><path fill="#f8f8f8" d="M 187.496094 149.433594 C 195.609375 149.433594 202.183594 156.007812 202.183594 164.121094 C 202.183594 166.945312 201.390625 169.582031 200.007812 171.820312 C 198.351562 174.5625 196.699219 177.304688 195.042969 180.046875 C 193.027344 183.324219 191.394531 185.976562 189.378906 189.253906 C 187.601562 192.144531 187.480469 192.214844 185.695312 189.308594 C 183.6875 186.046875 182 183.308594 179.996094 180.046875 C 178.34375 177.335938 176.691406 174.625 175.039062 171.910156 C 173.625 169.652344 172.804688 166.984375 172.804688 164.121094 C 172.804688 156.007812 179.382812 149.433594 187.496094 149.433594 Z M 187.496094 156.796875 C 191.132812 156.796875 194.082031 159.746094 194.082031 163.382812 C 194.082031 167.019531 191.132812 169.96875 187.496094 169.96875 C 183.859375 169.96875 180.910156 167.019531 180.910156 163.382812 C 180.910156 159.746094 183.859375 156.796875 187.496094 156.796875 Z M 187.496094 156.796875 " fill-opacity="1" fill-rule="evenodd"/></g><g fill="#f8f8f8" fill-opacity="1"><g transform="translate(123.692601, 164.786783)"><g><path d="M -11.171875 -15.484375 L -0.046875 -13.078125 C -0.046875 -13.078125 0.0820312 -13.0625 0.34375 -13.03125 C 0.601562 -13 0.953125 -13 1.390625 -13.03125 C 1.835938 -13.0625 2.3125 -13.179688 2.8125 -13.390625 L 1.796875 -8.6875 C 1.546875 -9.039062 1.25 -9.316406 0.90625 -9.515625 C 0.570312 -9.722656 0.265625 -9.875 -0.015625 -9.96875 C -0.296875 -10.070312 -0.488281 -10.132812 -0.59375 -10.15625 L -5.515625 -11.21875 L -6.6875 -5.8125 L -1.84375 -4.765625 C -1.84375 -4.765625 -1.707031 -4.75 -1.4375 -4.71875 C -1.175781 -4.6875 -0.828125 -4.679688 -0.390625 -4.703125 C 0.046875 -4.734375 0.515625 -4.859375 1.015625 -5.078125 L 0 -0.359375 C -0.257812 -0.722656 -0.566406 -1.007812 -0.921875 -1.21875 C -1.285156 -1.425781 -1.617188 -1.578125 -1.921875 -1.671875 C -2.234375 -1.773438 -2.421875 -1.832031 -2.484375 -1.84375 L -13.625 -4.25 C -13.6875 -4.269531 -13.875 -4.296875 -14.1875 -4.328125 C -14.507812 -4.367188 -14.875 -4.367188 -15.28125 -4.328125 C -15.695312 -4.285156 -16.101562 -4.15625 -16.5 -3.9375 L -15.484375 -8.65625 C -15.097656 -8.238281 -14.707031 -7.925781 -14.3125 -7.71875 C -13.925781 -7.519531 -13.601562 -7.378906 -13.34375 -7.296875 C -13.09375 -7.210938 -12.96875 -7.171875 -12.96875 -7.171875 L -8.234375 -6.15625 L -7.0625 -11.5625 L -11.890625 -12.609375 C -12.003906 -12.628906 -12.21875 -12.648438 -12.53125 -12.671875 C -12.84375 -12.703125 -13.191406 -12.691406 -13.578125 -12.640625 C -13.960938 -12.597656 -14.335938 -12.472656 -14.703125 -12.265625 L -13.6875 -16.96875 C -13.300781 -16.5625 -12.910156 -16.253906 -12.515625 -16.046875 C -12.128906 -15.835938 -11.804688 -15.691406 -11.546875 -15.609375 C -11.296875 -15.523438 -11.171875 -15.484375 -11.171875 -15.484375 Z M -11.171875 -15.484375 "/></g></g></g><g fill="#f8f8f8" fill-opacity="1"><g transform="translate(128.006964, 148.311793)"><g><path d="M -11.25 -9.65625 L -0.84375 -5.046875 C -0.84375 -5.046875 -0.710938 -5 -0.453125 -4.90625 C -0.203125 -4.820312 0.132812 -4.75 0.5625 -4.6875 C 1 -4.625 1.476562 -4.640625 2 -4.734375 L 0.0625 -0.359375 C -0.101562 -0.765625 -0.34375 -1.101562 -0.65625 -1.375 C -0.96875 -1.65625 -1.257812 -1.875 -1.53125 -2.03125 C -1.800781 -2.1875 -1.972656 -2.273438 -2.046875 -2.296875 L -12.46875 -6.921875 C -12.539062 -6.953125 -12.722656 -7.015625 -13.015625 -7.109375 C -13.316406 -7.210938 -13.675781 -7.285156 -14.09375 -7.328125 C -14.507812 -7.367188 -14.9375 -7.328125 -15.375 -7.203125 L -13.4375 -11.578125 C -13.132812 -11.117188 -12.8125 -10.75 -12.46875 -10.46875 C -12.125 -10.1875 -11.832031 -9.976562 -11.59375 -9.84375 C -11.363281 -9.71875 -11.25 -9.65625 -11.25 -9.65625 Z M -11.25 -9.65625 "/></g></g></g><g fill="#f8f8f8" fill-opacity="1"><g transform="translate(131.353578, 140.411899)"><g><path d="M -9.8125 -15.40625 C -9.8125 -15.40625 -9.703125 -15.535156 -9.484375 -15.796875 C -9.273438 -16.054688 -8.953125 -16.363281 -8.515625 -16.71875 C -8.085938 -17.082031 -7.570312 -17.421875 -6.96875 -17.734375 C -6.375 -18.054688 -5.691406 -18.273438 -4.921875 -18.390625 C -4.160156 -18.515625 -3.328125 -18.460938 -2.421875 -18.234375 C -1.523438 -18.003906 -0.566406 -17.519531 0.453125 -16.78125 C 1.722656 -15.875 2.675781 -14.945312 3.3125 -14 C 3.957031 -13.0625 4.378906 -12.144531 4.578125 -11.25 C 4.773438 -10.351562 4.828125 -9.507812 4.734375 -8.71875 C 4.640625 -7.9375 4.476562 -7.242188 4.25 -6.640625 C 4.03125 -6.046875 3.816406 -5.582031 3.609375 -5.25 C 3.410156 -4.914062 3.3125 -4.75 3.3125 -4.75 L 0.140625 -0.34375 C 0.046875 -0.769531 -0.125 -1.148438 -0.375 -1.484375 C -0.625 -1.828125 -0.863281 -2.097656 -1.09375 -2.296875 C -1.320312 -2.503906 -1.460938 -2.628906 -1.515625 -2.671875 L -10.796875 -9.328125 C -10.867188 -9.378906 -11.039062 -9.476562 -11.3125 -9.625 C -11.582031 -9.78125 -11.914062 -9.921875 -12.3125 -10.046875 C -12.707031 -10.171875 -13.128906 -10.21875 -13.578125 -10.1875 Z M 1.65625 -5.234375 C 1.757812 -5.378906 1.910156 -5.640625 2.109375 -6.015625 C 2.304688 -6.398438 2.445312 -6.863281 2.53125 -7.40625 C 2.625 -7.957031 2.597656 -8.570312 2.453125 -9.25 C 2.316406 -9.925781 1.976562 -10.644531 1.4375 -11.40625 C 0.894531 -12.164062 0.0664062 -12.941406 -1.046875 -13.734375 C -2.085938 -14.492188 -3.035156 -14.972656 -3.890625 -15.171875 C -4.753906 -15.378906 -5.515625 -15.421875 -6.171875 -15.296875 C -6.828125 -15.171875 -7.375 -14.96875 -7.8125 -14.6875 C -8.25 -14.40625 -8.578125 -14.140625 -8.796875 -13.890625 C -9.023438 -13.640625 -9.140625 -13.515625 -9.140625 -13.515625 L -9.8125 -12.59375 L 1.234375 -4.671875 Z M 1.65625 -5.234375 "/></g></g></g><g fill="#f8f8f8" fill-opacity="1"><g transform="translate(141.521797, 126.852545)"><g><path d="M -5.375 -17.46875 C -5.375 -17.46875 -5.234375 -17.5625 -4.953125 -17.75 C -4.671875 -17.945312 -4.273438 -18.160156 -3.765625 -18.390625 C -3.253906 -18.617188 -2.664062 -18.804688 -2 -18.953125 C -1.332031 -19.097656 -0.617188 -19.125 0.140625 -19.03125 C 0.910156 -18.945312 1.695312 -18.675781 2.5 -18.21875 C 3.300781 -17.757812 4.097656 -17.039062 4.890625 -16.0625 C 5.867188 -14.84375 6.546875 -13.691406 6.921875 -12.609375 C 7.296875 -11.535156 7.457031 -10.539062 7.40625 -9.625 C 7.351562 -8.707031 7.175781 -7.878906 6.875 -7.140625 C 6.582031 -6.410156 6.25 -5.789062 5.875 -5.28125 C 5.5 -4.769531 5.171875 -4.378906 4.890625 -4.109375 C 4.609375 -3.835938 4.46875 -3.703125 4.46875 -3.703125 L 0.234375 -0.28125 C 0.253906 -0.726562 0.1875 -1.144531 0.03125 -1.53125 C -0.113281 -1.925781 -0.269531 -2.253906 -0.4375 -2.515625 C -0.601562 -2.773438 -0.707031 -2.929688 -0.75 -2.984375 L -7.9375 -11.875 C -7.988281 -11.9375 -8.125 -12.078125 -8.34375 -12.296875 C -8.5625 -12.515625 -8.84375 -12.734375 -9.1875 -12.953125 C -9.539062 -13.179688 -9.9375 -13.335938 -10.375 -13.421875 Z M 3 -4.609375 C 3.132812 -4.722656 3.34375 -4.929688 3.625 -5.234375 C 3.914062 -5.546875 4.175781 -5.957031 4.40625 -6.46875 C 4.644531 -6.976562 4.785156 -7.578125 4.828125 -8.265625 C 4.878906 -8.953125 4.742188 -9.734375 4.421875 -10.609375 C 4.097656 -11.492188 3.507812 -12.46875 2.65625 -13.53125 C 1.84375 -14.539062 1.046875 -15.257812 0.265625 -15.6875 C -0.503906 -16.113281 -1.21875 -16.347656 -1.875 -16.390625 C -2.53125 -16.429688 -3.109375 -16.375 -3.609375 -16.21875 C -4.117188 -16.070312 -4.515625 -15.90625 -4.796875 -15.71875 C -5.078125 -15.539062 -5.21875 -15.453125 -5.21875 -15.453125 L -6.109375 -14.75 L 2.453125 -4.171875 Z M 3 -4.609375 "/></g></g></g><g fill="#f8f8f8" fill-opacity="1"><g transform="translate(155.062216, 116.549123)"><g><path d="M 7.46875 -5.625 L 8.296875 -7.375 L 10.765625 -4.984375 L 0.296875 -0.234375 C 0.421875 -0.640625 0.457031 -1.050781 0.40625 -1.46875 C 0.363281 -1.882812 0.296875 -2.238281 0.203125 -2.53125 C 0.109375 -2.832031 0.046875 -3.015625 0.015625 -3.078125 L -4.71875 -13.46875 C -4.75 -13.550781 -4.84375 -13.722656 -5 -13.984375 C -5.164062 -14.242188 -5.390625 -14.523438 -5.671875 -14.828125 C -5.953125 -15.140625 -6.296875 -15.394531 -6.703125 -15.59375 L 3.765625 -20.34375 L 3.9375 -17 L 2.09375 -17.4375 C 1.757812 -17.507812 1.421875 -17.472656 1.078125 -17.328125 L -2.234375 -15.828125 L 0.21875 -10.421875 L 2.5 -11.453125 C 2.570312 -11.484375 2.742188 -11.578125 3.015625 -11.734375 C 3.285156 -11.890625 3.570312 -12.109375 3.875 -12.390625 C 4.175781 -12.671875 4.421875 -13.015625 4.609375 -13.421875 L 6.03125 -10.28125 C 5.507812 -10.363281 5.023438 -10.375 4.578125 -10.3125 C 4.128906 -10.257812 3.773438 -10.1875 3.515625 -10.09375 C 3.265625 -10 3.140625 -9.953125 3.140625 -9.953125 L 0.890625 -8.9375 L 3.40625 -3.421875 L 6.71875 -4.921875 C 7.050781 -5.085938 7.300781 -5.320312 7.46875 -5.625 Z M 7.46875 -5.625 "/></g></g></g><g fill="#f8f8f8" fill-opacity="1"><g transform="translate(168.52011, 110.58925)"><g><path d="M 8.015625 -18.578125 L 11.703125 -19.203125 C 11.492188 -18.648438 11.359375 -18.128906 11.296875 -17.640625 C 11.242188 -17.148438 11.28125 -16.550781 11.40625 -15.84375 L 13.75 -2.0625 C 12.3125 -1.789062 11.101562 -2.1875 10.125 -3.25 L 1.3125 -11.953125 L 2.671875 -3.96875 C 2.804688 -3.1875 2.984375 -2.566406 3.203125 -2.109375 C 3.421875 -1.660156 3.71875 -1.21875 4.09375 -0.78125 L 0.390625 -0.140625 C 0.585938 -0.679688 0.71875 -1.203125 0.78125 -1.703125 C 0.84375 -2.210938 0.804688 -2.859375 0.671875 -3.640625 L -1.03125 -13.59375 C -1.15625 -14.375 -1.328125 -14.988281 -1.546875 -15.4375 C -1.773438 -15.882812 -2.070312 -16.335938 -2.4375 -16.796875 L 0.84375 -17.359375 L 10.796875 -7.21875 L 9.40625 -15.359375 C 9.28125 -16.140625 9.109375 -16.753906 8.890625 -17.203125 C 8.679688 -17.660156 8.390625 -18.117188 8.015625 -18.578125 Z M 8.015625 -18.578125 "/></g></g></g><g fill="#f8f8f8" fill-opacity="1"><g transform="translate(186.508627, 108.40462)"><g/></g></g><g fill="#f8f8f8" fill-opacity="1"><g transform="translate(193.256244, 108.398384)"><g><path d="M 9.78125 -6.59375 C 9.882812 -6.269531 10.046875 -5.78125 10.265625 -5.125 C 10.484375 -4.476562 10.734375 -3.765625 11.015625 -2.984375 C 11.304688 -2.203125 11.617188 -1.414062 11.953125 -0.625 C 12.296875 0.164062 12.648438 0.890625 13.015625 1.546875 C 13.378906 2.203125 13.726562 2.703125 14.0625 3.046875 C 14.0625 3.046875 13.835938 3.03125 13.390625 3 C 12.953125 2.976562 12.460938 2.90625 11.921875 2.78125 C 11.566406 2.707031 11.226562 2.601562 10.90625 2.46875 C 10.582031 2.332031 10.316406 2.171875 10.109375 1.984375 C 9.972656 1.859375 9.796875 1.570312 9.578125 1.125 C 9.359375 0.6875 9.117188 0.160156 8.859375 -0.453125 C 8.597656 -1.078125 8.332031 -1.738281 8.0625 -2.4375 C 7.800781 -3.144531 7.546875 -3.828125 7.296875 -4.484375 C 7.046875 -5.140625 6.828125 -5.71875 6.640625 -6.21875 C 6.460938 -6.726562 6.332031 -7.097656 6.25 -7.328125 L 5.015625 -1.765625 C 5.015625 -1.765625 4.992188 -1.617188 4.953125 -1.328125 C 4.921875 -1.035156 4.914062 -0.664062 4.9375 -0.21875 C 4.96875 0.21875 5.085938 0.65625 5.296875 1.09375 L 0.359375 0 C 0.722656 -0.257812 1.007812 -0.566406 1.21875 -0.921875 C 1.4375 -1.273438 1.59375 -1.597656 1.6875 -1.890625 C 1.78125 -2.191406 1.835938 -2.378906 1.859375 -2.453125 L 4.34375 -13.59375 C 4.351562 -13.675781 4.375 -13.867188 4.40625 -14.171875 C 4.445312 -14.484375 4.445312 -14.847656 4.40625 -15.265625 C 4.375 -15.679688 4.25 -16.085938 4.03125 -16.484375 L 10.890625 -14.953125 C 10.890625 -14.953125 11.03125 -14.90625 11.3125 -14.8125 C 11.601562 -14.726562 11.957031 -14.585938 12.375 -14.390625 C 12.789062 -14.191406 13.1875 -13.921875 13.5625 -13.578125 C 13.945312 -13.242188 14.238281 -12.820312 14.4375 -12.3125 C 14.644531 -11.800781 14.671875 -11.195312 14.515625 -10.5 C 14.328125 -9.644531 14.046875 -8.957031 13.671875 -8.4375 C 13.304688 -7.925781 12.890625 -7.535156 12.421875 -7.265625 C 11.960938 -7.003906 11.5 -6.828125 11.03125 -6.734375 C 10.570312 -6.648438 10.15625 -6.601562 9.78125 -6.59375 Z M 7.46875 -7.96875 C 7.46875 -7.96875 7.578125 -7.957031 7.796875 -7.9375 C 8.015625 -7.914062 8.289062 -7.914062 8.625 -7.9375 C 8.96875 -7.96875 9.320312 -8.070312 9.6875 -8.25 C 10.0625 -8.425781 10.40625 -8.703125 10.71875 -9.078125 C 11.03125 -9.453125 11.257812 -9.96875 11.40625 -10.625 C 11.507812 -11.101562 11.488281 -11.519531 11.34375 -11.875 C 11.195312 -12.238281 10.984375 -12.535156 10.703125 -12.765625 C 10.421875 -13.003906 10.128906 -13.195312 9.828125 -13.34375 C 9.523438 -13.488281 9.269531 -13.59375 9.0625 -13.65625 C 8.851562 -13.71875 8.75 -13.75 8.75 -13.75 L 7.734375 -13.96875 L 6.453125 -8.1875 Z M 7.46875 -7.96875 "/></g></g></g><g fill="#f8f8f8" fill-opacity="1"><g transform="translate(209.525548, 112.281941)"><g><path d="M 15.140625 -11.46875 C 16.335938 -10.820312 17.28125 -9.976562 17.96875 -8.9375 C 18.664062 -7.894531 18.992188 -6.648438 18.953125 -5.203125 C 18.921875 -3.753906 18.398438 -2.097656 17.390625 -0.234375 C 16.617188 1.191406 15.800781 2.304688 14.9375 3.109375 C 14.070312 3.910156 13.179688 4.453125 12.265625 4.734375 C 11.347656 5.015625 10.425781 5.078125 9.5 4.921875 C 8.570312 4.773438 7.660156 4.457031 6.765625 3.96875 C 5.847656 3.476562 5.070312 2.882812 4.4375 2.1875 C 3.800781 1.488281 3.351562 0.679688 3.09375 -0.234375 C 2.832031 -1.160156 2.800781 -2.203125 3 -3.359375 C 3.195312 -4.523438 3.679688 -5.820312 4.453125 -7.25 C 5.472656 -9.132812 6.582031 -10.488281 7.78125 -11.3125 C 8.988281 -12.132812 10.210938 -12.53125 11.453125 -12.5 C 12.703125 -12.46875 13.929688 -12.125 15.140625 -11.46875 Z M 12.921875 2.125 C 13.222656 1.582031 13.578125 0.925781 13.984375 0.15625 C 14.398438 -0.601562 14.691406 -1.335938 14.859375 -2.046875 C 15.066406 -2.960938 15.207031 -3.8125 15.28125 -4.59375 C 15.363281 -5.382812 15.300781 -6.132812 15.09375 -6.84375 C 14.882812 -7.5625 14.460938 -8.25 13.828125 -8.90625 C 13.191406 -9.570312 12.28125 -10.226562 11.09375 -10.875 C 10.144531 -11.382812 9.25 -10.816406 8.40625 -9.171875 C 8.113281 -8.640625 7.84375 -8.023438 7.59375 -7.328125 C 7.34375 -6.640625 7.128906 -5.898438 6.953125 -5.109375 C 6.742188 -4.265625 6.609375 -3.441406 6.546875 -2.640625 C 6.484375 -1.835938 6.535156 -1.066406 6.703125 -0.328125 C 6.878906 0.410156 7.222656 1.109375 7.734375 1.765625 C 8.242188 2.429688 8.984375 3.023438 9.953125 3.546875 C 10.597656 3.898438 11.160156 3.914062 11.640625 3.59375 C 12.128906 3.28125 12.554688 2.789062 12.921875 2.125 Z M 12.921875 2.125 "/></g></g></g><g fill="#f8f8f8" fill-opacity="1"><g transform="translate(225.367295, 121.360947)"><g><path d="M 19.328125 -4.75 L 22.21875 -1.890625 C 21.707031 -1.742188 21.257812 -1.5625 20.875 -1.34375 C 20.5 -1.125 20.207031 -0.925781 20 -0.75 C 19.800781 -0.582031 19.703125 -0.5 19.703125 -0.5 C 19.703125 -0.5 19.535156 -0.332031 19.203125 0 C 18.878906 0.320312 18.460938 0.738281 17.953125 1.25 C 17.453125 1.757812 16.925781 2.296875 16.375 2.859375 C 15.820312 3.421875 15.304688 3.941406 14.828125 4.421875 C 14.347656 4.910156 13.984375 5.28125 13.734375 5.53125 C 13.484375 5.789062 13.144531 6.066406 12.71875 6.359375 C 12.300781 6.648438 11.8125 6.894531 11.25 7.09375 C 10.6875 7.289062 10.070312 7.390625 9.40625 7.390625 C 8.75 7.390625 8.050781 7.234375 7.3125 6.921875 C 6.570312 6.609375 5.828125 6.078125 5.078125 5.328125 C 4.171875 4.429688 3.550781 3.570312 3.21875 2.75 C 2.894531 1.9375 2.789062 1.160156 2.90625 0.421875 C 3.019531 -0.304688 3.273438 -1.003906 3.671875 -1.671875 C 4.078125 -2.335938 4.566406 -2.972656 5.140625 -3.578125 L 10.8125 -9.3125 C 10.832031 -9.363281 10.945312 -9.507812 11.15625 -9.75 C 11.375 -10 11.570312 -10.304688 11.75 -10.671875 C 11.9375 -11.046875 12.050781 -11.457031 12.09375 -11.90625 L 15.796875 -8.234375 C 15.273438 -8.117188 14.816406 -7.953125 14.421875 -7.734375 C 14.035156 -7.515625 13.738281 -7.316406 13.53125 -7.140625 C 13.332031 -6.972656 13.234375 -6.890625 13.234375 -6.890625 C 12.242188 -5.867188 11.273438 -4.863281 10.328125 -3.875 C 9.378906 -2.894531 8.382812 -1.878906 7.34375 -0.828125 C 6.644531 -0.117188 6.238281 0.609375 6.125 1.359375 C 6.019531 2.117188 6.101562 2.832031 6.375 3.5 C 6.65625 4.164062 7.03125 4.726562 7.5 5.1875 C 7.851562 5.539062 8.234375 5.722656 8.640625 5.734375 C 9.046875 5.742188 9.453125 5.648438 9.859375 5.453125 C 10.273438 5.265625 10.660156 5.019531 11.015625 4.71875 C 11.367188 4.425781 11.6875 4.144531 11.96875 3.875 C 12.132812 3.695312 12.398438 3.421875 12.765625 3.046875 C 13.128906 2.679688 13.539062 2.265625 14 1.796875 C 14.457031 1.335938 14.921875 0.867188 15.390625 0.390625 C 15.859375 -0.078125 16.289062 -0.515625 16.6875 -0.921875 C 17.09375 -1.328125 17.414062 -1.65625 17.65625 -1.90625 C 17.90625 -2.15625 18.03125 -2.28125 18.03125 -2.28125 C 18.113281 -2.351562 18.25 -2.515625 18.4375 -2.765625 C 18.625 -3.015625 18.800781 -3.316406 18.96875 -3.671875 C 19.132812 -4.023438 19.253906 -4.382812 19.328125 -4.75 Z M 19.328125 -4.75 "/></g></g></g><g fill="#f8f8f8" fill-opacity="1"><g transform="translate(237.461777, 133.90129)"><g><path d="M 14.609375 -8.6875 L 21.8125 3.875 L 18.4375 4.34375 L 18.71875 2.46875 C 18.75 2.113281 18.675781 1.769531 18.5 1.4375 L 17.53125 -0.234375 L 6.703125 5.96875 C 6.703125 5.96875 6.59375 6.046875 6.375 6.203125 C 6.15625 6.359375 5.894531 6.597656 5.59375 6.921875 C 5.289062 7.242188 5.007812 7.648438 4.75 8.140625 L 2.234375 3.765625 C 2.671875 3.835938 3.09375 3.832031 3.5 3.75 C 3.90625 3.664062 4.25 3.5625 4.53125 3.4375 C 4.820312 3.3125 5.003906 3.226562 5.078125 3.1875 L 15.9375 -3.03125 L 15 -4.65625 C 14.800781 -4.976562 14.539062 -5.21875 14.21875 -5.375 L 12.46875 -6.046875 Z M 14.609375 -8.6875 "/></g></g></g><g fill="#f8f8f8" fill-opacity="1"><g transform="translate(245.359453, 148.605208)"><g><path d="M 4.40625 8.265625 L 6 9.34375 L 3.25 11.40625 L 0.171875 0.328125 C 0.566406 0.515625 0.972656 0.617188 1.390625 0.640625 C 1.804688 0.660156 2.164062 0.644531 2.46875 0.59375 C 2.78125 0.539062 2.96875 0.503906 3.03125 0.484375 L 14.046875 -2.578125 C 14.117188 -2.597656 14.296875 -2.664062 14.578125 -2.78125 C 14.867188 -2.894531 15.191406 -3.066406 15.546875 -3.296875 C 15.898438 -3.523438 16.195312 -3.828125 16.4375 -4.203125 L 19.515625 6.875 L 16.171875 6.53125 L 16.90625 4.796875 C 17.019531 4.472656 17.035156 4.125 16.953125 3.75 L 15.96875 0.234375 L 10.25 1.828125 L 10.921875 4.25 C 10.941406 4.320312 11.007812 4.503906 11.125 4.796875 C 11.238281 5.085938 11.410156 5.40625 11.640625 5.75 C 11.867188 6.09375 12.171875 6.382812 12.546875 6.625 L 9.21875 7.546875 C 9.382812 7.046875 9.472656 6.570312 9.484375 6.125 C 9.492188 5.675781 9.472656 5.316406 9.421875 5.046875 C 9.378906 4.785156 9.359375 4.65625 9.359375 4.65625 L 8.6875 2.265625 L 2.84375 3.890625 L 3.828125 7.40625 C 3.929688 7.769531 4.125 8.054688 4.40625 8.265625 Z M 4.40625 8.265625 "/></g></g></g><g fill="#f8f8f8" fill-opacity="1"><g transform="translate(248.78594, 163.319674)"><g/></g></g></svg>