<svg width="1920" height="205" viewBox="0 0 1920 205" fill="none" xmlns="http://www.w3.org/2000/svg">
<path d="M-13322 52.7983L-13216.1 57.3754C-13110.3 61.6571 -12898.6 71.2541 -12686.9 66.4556C-12475.2 61.6571 -12263.5 43.9396 -12051.8 57.3754C-11840 71.2541 -11628.3 116.286 -11416.6 130.165C-11204.9 143.601 -10993.2 125.883 -10781.5 130.165C-10569.8 134.742 -10358.1 162.056 -10146.4 148.399C-9934.67 134.742 -9722.96 80.1129 -9511.25 52.7983C-9299.54 25.4838 -9087.83 25.4838 -8876.12 20.9068C-8664.42 16.6251 -8452.71 7.02807 -8241 39.1411C-8029.29 71.2541 -7817.58 143.601 -7605.88 143.822C-7394.17 143.601 -7182.46 71.2541 -6970.75 57.3754C-6759.04 43.9396 -6547.33 88.9716 -6335.62 93.7701C-6123.92 98.5686 -5912.21 61.6571 -5700.5 66.4556C-5488.79 71.2541 -5277.08 116.286 -5065.38 125.662C-4853.67 134.742 -4641.96 107.427 -4430.25 80.1129C-4218.54 52.7983 -4006.83 25.4838 -3795.12 48.2213C-3583.42 71.2541 -3371.71 143.601 -3160 166.633C-2948.29 189.371 -2736.58 162.056 -2524.88 121.085C-2313.17 80.1129 -2101.46 25.4838 -1889.75 7.24954C-1678.04 -10.6895 -1466.33 7.02807 -1254.62 34.5641C-1042.92 61.6571 -831.208 98.5686 -619.5 116.508C-407.791 134.742 -196.083 134.742 15.625 107.427C227.334 80.1129 439.042 25.4838 650.75 20.9068C862.459 16.6251 1074.17 61.6571 1285.88 71.0326C1497.58 80.1129 1709.29 52.7983 1815.15 39.1411L1921 25.4838V244H1815.15C1709.29 244 1497.58 244 1285.88 244C1074.17 244 862.459 244 650.75 244C439.042 244 227.334 244 15.625 244C-196.083 244 -407.791 244 -619.5 244C-831.208 244 -1042.92 244 -1254.62 244C-1466.33 244 -1678.04 244 -1889.75 244C-2101.46 244 -2313.17 244 -2524.88 244C-2736.58 244 -2948.29 244 -3160 244C-3371.71 244 -3583.42 244 -3795.12 244C-4006.83 244 -4218.54 244 -4430.25 244C-4641.96 244 -4853.67 244 -5065.38 244C-5277.08 244 -5488.79 244 -5700.5 244C-5912.21 244 -6123.92 244 -6335.62 244C-6547.33 244 -6759.04 244 -6970.75 244C-7182.46 244 -7394.17 244 -7605.88 244C-7817.58 244 -8029.29 244 -8241 244C-8452.71 244 -8664.42 244 -8876.12 244C-9087.83 244 -9299.54 244 -9511.25 244C-9722.96 244 -9934.67 244 -10146.4 244C-10358.1 244 -10569.8 244 -10781.5 244C-10993.2 244 -11204.9 244 -11416.6 244C-11628.3 244 -11840 244 -12051.8 244C-12263.5 244 -12475.2 244 -12686.9 244C-12898.6 244 -13110.3 244 -13216.1 244H-13322V52.7983Z" fill="#064469"/>
</svg>
