<svg width="1920" height="160" viewBox="0 0 1920 160" fill="none" xmlns="http://www.w3.org/2000/svg">
<g clip-path="url(#clip0_393_2482)">
<path d="M1920 32L1856 45.3C1792 59 1664 85 1536 93.3C1408 101 1280 91 1152 77.3C1024 64 896 48 768 50.7C640 53 512 75 384 77.3C256 80 128 64 0 66.7C-128 69 -256 91 -384 85.3C-512 80 -640 48 -768 40C-896 32 -1024 48 -1152 56C-1280 64 -1408 64 -1536 61.3C-1664 59 -1792 53 -1920 69.3C-2048 85 -2176 123 -2304 130.7C-2432 139 -2560 117 -2688 104C-2816 91 -2944 85 -3072 90.7C-3200 96 -3328 112 -3456 125.3C-3584 139 -3712 149 -3840 146.7C-3968 144 -4096 128 -4224 104C-4352 80 -4480 48 -4608 56C-4736 64 -4864 112 -4992 117.3C-5120 123 -5248 85 -5376 80C-5504 75 -5632 101 -5760 96C-5888 91 -6016 53 -6144 37.3C-6272 21 -6400 27 -6528 26.7C-6656 27 -6784 21 -6912 24C-7040 27 -7168 37 -7232 42.7L-7296 48V1.52588e-05H-7232C-7168 1.52588e-05 -7040 1.52588e-05 -6912 1.52588e-05C-6784 1.52588e-05 -6656 1.52588e-05 -6528 1.52588e-05C-6400 1.52588e-05 -6272 1.52588e-05 -6144 1.52588e-05C-6016 1.52588e-05 -5888 1.52588e-05 -5760 1.52588e-05C-5632 1.52588e-05 -5504 1.52588e-05 -5376 1.52588e-05C-5248 1.52588e-05 -5120 1.52588e-05 -4992 1.52588e-05C-4864 1.52588e-05 -4736 1.52588e-05 -4608 1.52588e-05C-4480 1.52588e-05 -4352 1.52588e-05 -4224 1.52588e-05C-4096 1.52588e-05 -3968 1.52588e-05 -3840 1.52588e-05C-3712 1.52588e-05 -3584 1.52588e-05 -3456 1.52588e-05C-3328 1.52588e-05 -3200 1.52588e-05 -3072 1.52588e-05C-2944 1.52588e-05 -2816 1.52588e-05 -2688 1.52588e-05C-2560 1.52588e-05 -2432 1.52588e-05 -2304 1.52588e-05C-2176 1.52588e-05 -2048 1.52588e-05 -1920 1.52588e-05C-1792 1.52588e-05 -1664 1.52588e-05 -1536 1.52588e-05C-1408 1.52588e-05 -1280 1.52588e-05 -1152 1.52588e-05C-1024 1.52588e-05 -896 1.52588e-05 -768 1.52588e-05C-640 1.52588e-05 -512 1.52588e-05 -384 1.52588e-05C-256 1.52588e-05 -128 1.52588e-05 0 1.52588e-05C128 1.52588e-05 256 1.52588e-05 384 1.52588e-05C512 1.52588e-05 640 1.52588e-05 768 1.52588e-05C896 1.52588e-05 1024 1.52588e-05 1152 1.52588e-05C1280 1.52588e-05 1408 1.52588e-05 1536 1.52588e-05C1664 1.52588e-05 1792 1.52588e-05 1856 1.52588e-05H1920V32Z" fill="url(#paint0_linear_393_2482)"/>
<path opacity="0.9" d="M1920 32L1856 48C1792 64 1664 96 1536 104C1408 112 1280 96 1152 90.7C1024 85 896 91 768 104C640 117 512 139 384 136C256 133 128 107 0 90.7C-128 75 -256 69 -384 82.7C-512 96 -640 128 -768 141.3C-896 155 -1024 149 -1152 130.7C-1280 112 -1408 80 -1536 69.3C-1664 59 -1792 69 -1920 88C-2048 107 -2176 133 -2304 136C-2432 139 -2560 117 -2688 101.3C-2816 85 -2944 75 -3072 74.7C-3200 75 -3328 85 -3456 88C-3584 91 -3712 85 -3840 80C-3968 75 -4096 69 -4224 69.3C-4352 69 -4480 75 -4608 77.3C-4736 80 -4864 80 -4992 82.7C-5120 85 -5248 91 -5376 90.7C-5504 91 -5632 85 -5760 82.7C-5888 80 -6016 80 -6144 72C-6272 64 -6400 48 -6528 58.7C-6656 69 -6784 107 -6912 125.3C-7040 144 -7168 144 -7232 144H-7296V1.52588e-05H-7232C-7168 1.52588e-05 -7040 1.52588e-05 -6912 1.52588e-05C-6784 1.52588e-05 -6656 1.52588e-05 -6528 1.52588e-05C-6400 1.52588e-05 -6272 1.52588e-05 -6144 1.52588e-05C-6016 1.52588e-05 -5888 1.52588e-05 -5760 1.52588e-05C-5632 1.52588e-05 -5504 1.52588e-05 -5376 1.52588e-05C-5248 1.52588e-05 -5120 1.52588e-05 -4992 1.52588e-05C-4864 1.52588e-05 -4736 1.52588e-05 -4608 1.52588e-05C-4480 1.52588e-05 -4352 1.52588e-05 -4224 1.52588e-05C-4096 1.52588e-05 -3968 1.52588e-05 -3840 1.52588e-05C-3712 1.52588e-05 -3584 1.52588e-05 -3456 1.52588e-05C-3328 1.52588e-05 -3200 1.52588e-05 -3072 1.52588e-05C-2944 1.52588e-05 -2816 1.52588e-05 -2688 1.52588e-05C-2560 1.52588e-05 -2432 1.52588e-05 -2304 1.52588e-05C-2176 1.52588e-05 -2048 1.52588e-05 -1920 1.52588e-05C-1792 1.52588e-05 -1664 1.52588e-05 -1536 1.52588e-05C-1408 1.52588e-05 -1280 1.52588e-05 -1152 1.52588e-05C-1024 1.52588e-05 -896 1.52588e-05 -768 1.52588e-05C-640 1.52588e-05 -512 1.52588e-05 -384 1.52588e-05C-256 1.52588e-05 -128 1.52588e-05 0 1.52588e-05C128 1.52588e-05 256 1.52588e-05 384 1.52588e-05C512 1.52588e-05 640 1.52588e-05 768 1.52588e-05C896 1.52588e-05 1024 1.52588e-05 1152 1.52588e-05C1280 1.52588e-05 1408 1.52588e-05 1536 1.52588e-05C1664 1.52588e-05 1792 1.52588e-05 1856 1.52588e-05H1920V32Z" fill="url(#paint1_linear_393_2482)"/>
<path opacity="0.8" d="M1920 112L1856 120C1792 128 1664 144 1536 130.7C1408 117 1280 75 1152 66.7C1024 59 896 85 768 82.7C640 80 512 48 384 50.7C256 53 128 91 0 109.3C-128 128 -256 128 -384 114.7C-512 101 -640 75 -768 66.7C-896 59 -1024 69 -1152 64C-1280 59 -1408 37 -1536 45.3C-1664 53 -1792 91 -1920 114.7C-2048 139 -2176 149 -2304 149.3C-2432 149 -2560 139 -2688 133.3C-2816 128 -2944 128 -3072 114.7C-3200 101 -3328 75 -3456 72C-3584 69 -3712 91 -3840 101.3C-3968 112 -4096 112 -4224 120C-4352 128 -4480 144 -4608 146.7C-4736 149 -4864 139 -4992 130.7C-5120 123 -5248 117 -5376 112C-5504 107 -5632 101 -5760 88C-5888 75 -6016 53 -6144 61.3C-6272 69 -6400 107 -6528 128C-6656 149 -6784 155 -6912 141.3C-7040 128 -7168 96 -7232 80L-7296 64V-1.52588e-05H-7232C-7168 -1.52588e-05 -7040 -1.52588e-05 -6912 -1.52588e-05C-6784 -1.52588e-05 -6656 -1.52588e-05 -6528 -1.52588e-05C-6400 -1.52588e-05 -6272 -1.52588e-05 -6144 -1.52588e-05C-6016 -1.52588e-05 -5888 -1.52588e-05 -5760 -1.52588e-05C-5632 -1.52588e-05 -5504 -1.52588e-05 -5376 -1.52588e-05C-5248 -1.52588e-05 -5120 -1.52588e-05 -4992 -1.52588e-05C-4864 -1.52588e-05 -4736 -1.52588e-05 -4608 -1.52588e-05C-4480 -1.52588e-05 -4352 -1.52588e-05 -4224 -1.52588e-05C-4096 -1.52588e-05 -3968 -1.52588e-05 -3840 -1.52588e-05C-3712 -1.52588e-05 -3584 -1.52588e-05 -3456 -1.52588e-05C-3328 -1.52588e-05 -3200 -1.52588e-05 -3072 -1.52588e-05C-2944 -1.52588e-05 -2816 -1.52588e-05 -2688 -1.52588e-05C-2560 -1.52588e-05 -2432 -1.52588e-05 -2304 -1.52588e-05C-2176 -1.52588e-05 -2048 -1.52588e-05 -1920 -1.52588e-05C-1792 -1.52588e-05 -1664 -1.52588e-05 -1536 -1.52588e-05C-1408 -1.52588e-05 -1280 -1.52588e-05 -1152 -1.52588e-05C-1024 -1.52588e-05 -896 -1.52588e-05 -768 -1.52588e-05C-640 -1.52588e-05 -512 -1.52588e-05 -384 -1.52588e-05C-256 -1.52588e-05 -128 -1.52588e-05 0 -1.52588e-05C128 -1.52588e-05 256 -1.52588e-05 384 -1.52588e-05C512 -1.52588e-05 640 -1.52588e-05 768 -1.52588e-05C896 -1.52588e-05 1024 -1.52588e-05 1152 -1.52588e-05C1280 -1.52588e-05 1408 -1.52588e-05 1536 -1.52588e-05C1664 -1.52588e-05 1792 -1.52588e-05 1856 -1.52588e-05H1920V112Z" fill="url(#paint2_linear_393_2482)"/>
</g>
<defs>
<linearGradient id="paint0_linear_393_2482" x1="1920" y1="1.52588e-05" x2="1920" y2="147.03" gradientUnits="userSpaceOnUse">
<stop stop-color="#D0D7E1" stop-opacity="0.04"/>
<stop offset="1" stop-color="#D0D7E1"/>
</linearGradient>
<linearGradient id="paint1_linear_393_2482" x1="1920" y1="1.52588e-05" x2="1920" y2="148.792" gradientUnits="userSpaceOnUse">
<stop stop-color="#D0D7E1"/>
<stop offset="1" stop-color="#D0D7E1" stop-opacity="0.61"/>
</linearGradient>
<linearGradient id="paint2_linear_393_2482" x1="1920" y1="-1.52588e-05" x2="1920" y2="149.3" gradientUnits="userSpaceOnUse">
<stop stop-color="#D0D7E1"/>
<stop offset="1" stop-color="#D0D7E1"/>
</linearGradient>
<clipPath id="clip0_393_2482">
<rect width="1920" height="160" fill="white" transform="matrix(-1 0 0 -1 1920 160)"/>
</clipPath>
</defs>
</svg>
