<svg width="1920" height="160" viewBox="0 0 1920 160" fill="none" xmlns="http://www.w3.org/2000/svg">
<g clip-path="url(#clip0_393_2487)">
<path d="M-25 128L39.9 114.7C104.8 101 234.6 75 364.4 66.7C494.2 59 624 69 753.8 82.7C883.6 96 1013.4 112 1143.2 109.3C1273 107 1402.8 85 1532.6 82.7C1662.4 80 1792.2 96 1922 93.3C2051.8 91 2181.6 69 2311.4 74.7C2441.2 80 2571 112 2700.8 120C2830.6 128 2960.4 112 3090.2 104C3220 96 3349.8 96 3479.6 98.7C3609.4 101 3739.2 107 3869 90.7C3998.8 75 4128.6 37 4258.4 29.3C4388.2 21 4518 43 4647.8 56C4777.6 69 4907.4 75 5037.2 69.3C5167 64 5296.8 48 5426.6 34.7C5556.4 21 5686.2 11 5816 13.3C5945.8 16 6075.6 32 6205.4 56C6335.2 80 6465 112 6594.8 104C6724.6 96 6854.4 48 6984.2 42.7C7114 37 7243.8 75 7373.6 80C7503.4 85 7633.2 59 7763 64C7892.8 69 8022.6 107 8152.4 122.7C8282.2 139 8412 133 8541.8 133.3C8671.6 133 8801.4 139 8931.2 136C9061 133 9190.8 123 9255.7 117.3L9320.6 112V160H9255.7C9190.8 160 9061 160 8931.2 160C8801.4 160 8671.6 160 8541.8 160C8412 160 8282.2 160 8152.4 160C8022.6 160 7892.8 160 7763 160C7633.2 160 7503.4 160 7373.6 160C7243.8 160 7114 160 6984.2 160C6854.4 160 6724.6 160 6594.8 160C6465 160 6335.2 160 6205.4 160C6075.6 160 5945.8 160 5816 160C5686.2 160 5556.4 160 5426.6 160C5296.8 160 5167 160 5037.2 160C4907.4 160 4777.6 160 4647.8 160C4518 160 4388.2 160 4258.4 160C4128.6 160 3998.8 160 3869 160C3739.2 160 3609.4 160 3479.6 160C3349.8 160 3220 160 3090.2 160C2960.4 160 2830.6 160 2700.8 160C2571 160 2441.2 160 2311.4 160C2181.6 160 2051.8 160 1922 160C1792.2 160 1662.4 160 1532.6 160C1402.8 160 1273 160 1143.2 160C1013.4 160 883.6 160 753.8 160C624 160 494.2 160 364.4 160C234.6 160 104.8 160 39.9 160H-25V128Z" fill="url(#paint0_linear_393_2487)"/>
<path opacity="0.9" d="M-25 128L39.9 112C104.8 96 234.6 64 364.4 56C494.2 48 624 64 753.8 69.3C883.6 75 1013.4 69 1143.2 56C1273 43 1402.8 21 1532.6 24C1662.4 27 1792.2 53 1922 69.3C2051.8 85 2181.6 91 2311.4 77.3C2441.2 64 2571 32 2700.8 18.7C2830.6 5.00001 2960.4 11 3090.2 29.3C3220 48 3349.8 80 3479.6 90.7C3609.4 101 3739.2 91 3869 72C3998.8 53 4128.6 27 4258.4 24C4388.2 21 4518 43 4647.8 58.7C4777.6 75 4907.4 85 5037.2 85.3C5167 85 5296.8 75 5426.6 72C5556.4 69 5686.2 75 5816 80C5945.8 85 6075.6 91 6205.4 90.7C6335.2 91 6465 85 6594.8 82.7C6724.6 80 6854.4 80 6984.2 77.3C7114 75 7243.8 69 7373.6 69.3C7503.4 69 7633.2 75 7763 77.3C7892.8 80 8022.6 80 8152.4 88C8282.2 96 8412 112 8541.8 101.3C8671.6 91 8801.4 53 8931.2 34.7C9061 16 9190.8 16 9255.7 16H9320.6V160H9255.7C9190.8 160 9061 160 8931.2 160C8801.4 160 8671.6 160 8541.8 160C8412 160 8282.2 160 8152.4 160C8022.6 160 7892.8 160 7763 160C7633.2 160 7503.4 160 7373.6 160C7243.8 160 7114 160 6984.2 160C6854.4 160 6724.6 160 6594.8 160C6465 160 6335.2 160 6205.4 160C6075.6 160 5945.8 160 5816 160C5686.2 160 5556.4 160 5426.6 160C5296.8 160 5167 160 5037.2 160C4907.4 160 4777.6 160 4647.8 160C4518 160 4388.2 160 4258.4 160C4128.6 160 3998.8 160 3869 160C3739.2 160 3609.4 160 3479.6 160C3349.8 160 3220 160 3090.2 160C2960.4 160 2830.6 160 2700.8 160C2571 160 2441.2 160 2311.4 160C2181.6 160 2051.8 160 1922 160C1792.2 160 1662.4 160 1532.6 160C1402.8 160 1273 160 1143.2 160C1013.4 160 883.6 160 753.8 160C624 160 494.2 160 364.4 160C234.6 160 104.8 160 39.9 160H-25V128Z" fill="url(#paint1_linear_393_2487)"/>
<path opacity="0.8" d="M-25 48L39.9 40C104.8 32 234.6 16 364.4 29.3C494.2 43 624 85 753.8 93.3C883.6 101 1013.4 75 1143.2 77.3C1273 80 1402.8 112 1532.6 109.3C1662.4 107 1792.2 69 1922 50.7C2051.8 32 2181.6 32 2311.4 45.3C2441.2 59 2571 85 2700.8 93.3C2830.6 101 2960.4 91 3090.2 96C3220 101 3349.8 123 3479.6 114.7C3609.4 107 3739.2 69 3869 45.3C3998.8 21 4128.6 11 4258.4 10.7C4388.2 11 4518 21 4647.8 26.7C4777.6 32 4907.4 32 5037.2 45.3C5167 59 5296.8 85 5426.6 88C5556.4 91 5686.2 69 5816 58.7C5945.8 48 6075.6 48 6205.4 40C6335.2 32 6465 16 6594.8 13.3C6724.6 11 6854.4 21 6984.2 29.3C7114 37 7243.8 43 7373.6 48C7503.4 53 7633.2 59 7763 72C7892.8 85 8022.6 107 8152.4 98.7C8282.2 91 8412 53 8541.8 32C8671.6 11 8801.4 5.00001 8931.2 18.7C9061 32 9190.8 64 9255.7 80L9320.6 96V160H9255.7C9190.8 160 9061 160 8931.2 160C8801.4 160 8671.6 160 8541.8 160C8412 160 8282.2 160 8152.4 160C8022.6 160 7892.8 160 7763 160C7633.2 160 7503.4 160 7373.6 160C7243.8 160 7114 160 6984.2 160C6854.4 160 6724.6 160 6594.8 160C6465 160 6335.2 160 6205.4 160C6075.6 160 5945.8 160 5816 160C5686.2 160 5556.4 160 5426.6 160C5296.8 160 5167 160 5037.2 160C4907.4 160 4777.6 160 4647.8 160C4518 160 4388.2 160 4258.4 160C4128.6 160 3998.8 160 3869 160C3739.2 160 3609.4 160 3479.6 160C3349.8 160 3220 160 3090.2 160C2960.4 160 2830.6 160 2700.8 160C2571 160 2441.2 160 2311.4 160C2181.6 160 2051.8 160 1922 160C1792.2 160 1662.4 160 1532.6 160C1402.8 160 1273 160 1143.2 160C1013.4 160 883.6 160 753.8 160C624 160 494.2 160 364.4 160C234.6 160 104.8 160 39.9 160H-25V48Z" fill="url(#paint2_linear_393_2487)"/>
</g>
<defs>
<linearGradient id="paint0_linear_393_2487" x1="-25" y1="160" x2="-25" y2="12.97" gradientUnits="userSpaceOnUse">
<stop stop-color="#D0D7E1" stop-opacity="0.04"/>
<stop offset="1" stop-color="#D0D7E1"/>
</linearGradient>
<linearGradient id="paint1_linear_393_2487" x1="-25" y1="160" x2="-25" y2="11.2082" gradientUnits="userSpaceOnUse">
<stop stop-color="#D0D7E1"/>
<stop offset="1" stop-color="#D0D7E1" stop-opacity="0.61"/>
</linearGradient>
<linearGradient id="paint2_linear_393_2487" x1="-25" y1="160" x2="-25" y2="10.7" gradientUnits="userSpaceOnUse">
<stop stop-color="#D0D7E1"/>
<stop offset="1" stop-color="#D0D7E1"/>
</linearGradient>
<clipPath id="clip0_393_2487">
<rect width="1947" height="160" fill="white" transform="translate(-25)"/>
</clipPath>
</defs>
</svg>
